<?xml version="1.0" encoding="UTF-8" standalone="no"?>
<svg
   version="1.2"
   viewBox="0 0 113.39 113.39"
   id="svg1"
   sodipodi:docname="B_heart-outline.svg"
   inkscape:version="1.3.2 (091e20e, 2023-11-25, custom)"
   xmlns:inkscape="http://www.inkscape.org/namespaces/inkscape"
   xmlns:sodipodi="http://sodipodi.sourceforge.net/DTD/sodipodi-0.dtd"
   xmlns="http://www.w3.org/2000/svg"
   xmlns:svg="http://www.w3.org/2000/svg">
  <defs
     id="defs1" />
  <sodipodi:namedview
     id="namedview1"
     pagecolor="#ffffff"
     bordercolor="#000000"
     borderopacity="0.25"
     inkscape:showpageshadow="2"
     inkscape:pageopacity="0.0"
     inkscape:pagecheckerboard="0"
     inkscape:deskcolor="#d1d1d1"
     inkscape:zoom="7.205221"
     inkscape:cx="56.625606"
     inkscape:cy="56.695"
     inkscape:window-width="1920"
     inkscape:window-height="1094"
     inkscape:window-x="-11"
     inkscape:window-y="-11"
     inkscape:window-maximized="1"
     inkscape:current-layer="svg1" />
  <!-- Generator: Adobe Illustrator 28.7.4, SVG Export Plug-In . SVG Version: 1.2.0 Build 166)  -->
  <g
     id="g1"
     style="fill:#a90636;fill-opacity:1">
    <g
       id="_レイヤー_2"
       style="fill:#a90636;fill-opacity:1">
      <path
         d="M76.47,16.96c11.18,0,20.28,9.1,20.28,20.28,0,27.8-30.32,51.22-40.06,58.03-3.99-2.78-11.41-8.32-18.81-15.86-9.69-9.86-21.24-25.19-21.24-42.17,0-11.18,9.1-20.28,20.28-20.28,5.9,0,11.53,2.66,15.44,7.31l4.34,5.15,4.34-5.15c3.91-4.64,9.54-7.31,15.44-7.31M76.48,11.29c-7.97,0-15.01,3.67-19.77,9.32-4.76-5.65-11.8-9.32-19.77-9.32-14.33,0-25.95,11.62-25.95,25.95,0,36.59,45.73,64.85,45.73,64.85,0,0,45.73-28.26,45.73-64.85,0-14.33-11.62-25.95-25.95-25.95h-.02Z"
         id="path1"
         style="fill:#a90636;fill-opacity:1" />
    </g>
  </g>
</svg>
