<?xml version="1.0" encoding="UTF-8" standalone="no"?>
<svg
   version="1.2"
   viewBox="0 0 113.39 113.39"
   id="svg1"
   sodipodi:docname="C_calligraphy.svg"
   inkscape:version="1.3.2 (091e20e, 2023-11-25, custom)"
   xmlns:inkscape="http://www.inkscape.org/namespaces/inkscape"
   xmlns:sodipodi="http://sodipodi.sourceforge.net/DTD/sodipodi-0.dtd"
   xmlns="http://www.w3.org/2000/svg"
   xmlns:svg="http://www.w3.org/2000/svg">
  <defs
     id="defs1" />
  <sodipodi:namedview
     id="namedview1"
     pagecolor="#ffffff"
     bordercolor="#000000"
     borderopacity="0.25"
     inkscape:showpageshadow="2"
     inkscape:pageopacity="0.0"
     inkscape:pagecheckerboard="0"
     inkscape:deskcolor="#d1d1d1"
     inkscape:zoom="7.205221"
     inkscape:cx="56.625606"
     inkscape:cy="56.695"
     inkscape:window-width="1920"
     inkscape:window-height="1094"
     inkscape:window-x="-11"
     inkscape:window-y="-11"
     inkscape:window-maximized="1"
     inkscape:current-layer="svg1" />
  <!-- Generator: Adobe Illustrator 28.7.4, SVG Export Plug-In . SVG Version: 1.2.0 Build 166)  -->
  <g
     id="g1"
     style="fill:#a90636;fill-opacity:1">
    <g
       id="_レイヤー_1"
       data-name="レイヤー_1"
       style="fill:#a90636;fill-opacity:1">
      <g
         id="_編集モード"
         data-name="編集モード"
         style="fill:#a90636;fill-opacity:1">
        <path
           d="M102.06,17.23l-11.18-8.73-42,54.08h-1.08c-6.06,0-12.62,3.34-17.08,9.35-6.72,9-1.65,20.4-16.39,33,23.44,0,36.2-4,43.18-13.63,5.15-7.14,6-15,3.2-20.8l41.35-53.27ZM53,87.94l-.13.18c-11.43,2.73-6.18-8.73-20.64-4.58.73-3.3,1.42-6,3.12-8.25,3.24-4.36,8-7.06,12.53-7.06,1.83-.04,3.62.51,5.12,1.56,5,3.59,5,11.21,0,18.15Z"
           fill="#040000"
           id="path1"
           style="fill:#a90636;fill-opacity:1" />
      </g>
    </g>
  </g>
</svg>
