<?xml version="1.0" encoding="UTF-8"?>
<svg xmlns="http://www.w3.org/2000/svg" baseProfile="tiny" version="1.2" viewBox="0 0 113.39 113.39">
  <!-- Generator: Adobe Illustrator 28.7.4, SVG Export Plug-In . SVG Version: 1.2.0 Build 166)  -->
  <g>
    <g id="_レイヤー_1" data-name="レイヤー_1">
      <g id="_編集モード" data-name="編集モード">
        <path d="M99.21,68v5.7h-8.5v-25.51h14.17c-11.39-6.65-19.18-16.43-22.76-28.35H31.22c-3.58,11.92-11.37,21.7-22.76,28.35h14.22v25.51h-8.5v-5.7h-5.68v25.54h96.38v-25.54h-5.67ZM28.35,48.19h56.65v25.51h-14.13v-14.17h-28.35v14.17h-14.17v-25.51ZM28.35,79.37h14.17v8.34h-14.17v-8.34ZM70.87,87.71v-8.34h14.13v8.34h-14.13ZM14.17,79.37h8.5v8.5h-8.5v-8.5ZM90.71,87.87v-8.5h8.5v8.5h-8.5Z" fill="#040000"/>
      </g>
    </g>
  </g>
</svg>