<svg xmlns="http://www.w3.org/2000/svg" style="display:none;">
    <defs>
        <symbol id="heart-icon-outline" viewBox="0 0 113.39 113.39">
            <g fill="currentColor">
                <path d="M76.47,16.96c11.18,0,20.28,9.1,20.28,20.28,0,27.8-30.32,51.22-40.06,58.03-3.99-2.78-11.41-8.32-18.81-15.86-9.69-9.86-21.24-25.19-21.24-42.17,0-11.18,9.1-20.28,20.28-20.28,5.9,0,11.53,2.66,15.44,7.31l4.34,5.15,4.34-5.15c3.91-4.64,9.54-7.31,15.44-7.31M76.48,11.29c-7.97,0-15.01,3.67-19.77,9.32-4.76-5.65-11.8-9.32-19.77-9.32-14.33,0-25.95,11.62-25.95,25.95,0,36.59,45.73,64.85,45.73,64.85,0,0,45.73-28.26,45.73-64.85,0-14.33-11.62-25.95-25.95-25.95h-.02Z"/>
            </g>

        </symbol>

        <symbol id="heart-icon-filled" viewBox="0 0 113.39 113.39">
            <g fill="currentColor">
                <path d="M10.97,37.2c0,36.59,45.73,64.85,45.73,64.85,0,0,45.73-28.26,45.73-64.85,0-14.33-11.62-25.95-25.95-25.95-7.97,0-15.01,3.67-19.77,9.32-4.76-5.65-11.8-9.32-19.77-9.32-14.33,0-25.95,11.62-25.95,25.95h-.02Z"  />
            </g>

        </symbol>

        <symbol id="trash-can" viewBox="0 0 113.39 113.39">
            <g fill="currentColor">
                <path d="M28.35,105.15h56.65l8.5-70.87H19.84l8.51,70.87ZM65.91,51.3h4.25v36.85h-4.25v-36.85ZM43.23,51.3h4.25v36.85h-4.25v-36.85Z"  />
                <polygon points="65.2 20.11 65.2 11.61 48.19 11.61 48.19 20.11 19.84 20.11 19.84 28.62 93.54 28.62 93.54 20.11 65.2 20.11" />
            </g>
        </symbol>

        <symbol id="expand-color-palette" viewBox="0 0 113.39 113.39">
            <g fill="currentColor">
                <rect
                x="45.11"
                y="58.81"
                width="9.46"
                height="36.84"
                
                 />
                <rect
                x="31.39"
                y="58.81"
                width="9.46"
                height="36.84"
                 />
                <rect
                x="17.68"
                y="58.81"
                width="9.46"
                height="36.84"
                 />
                <rect
                x="86.23"
                y="17.71"
                width="9.46"
                height="36.84"
                />
                <rect
                x="72.52"
                y="17.71"
                width="9.46"
                height="36.84"
                 />
                <rect
                x="58.8"
                y="17.71"
                width="9.46"
                height="36.84"
                 />
                <rect
                x="17.7"
                y="45.12"
                width="36.84"
                height="9.46"
                 />
                <rect
                x="17.7"
                y="31.4"
                width="36.84"
                height="9.46"
                />
                <rect
                x="17.7"
                y="17.68"
                width="36.84"
                height="9.46"
                 />
                <rect
                x="58.83"
                y="86.24"
                width="36.84"
                height="9.46"
                />
                <rect
                x="58.83"
                y="72.52"
                width="36.84"
                height="9.46"
                />
                <rect
                x="58.83"
                y="58.81"
                width="36.84"
                height="9.46"
                 />
            </g>
        
        </symbol>

    </defs>
    
    

</svg>