<svg xmlns="http://www.w3.org/2000/svg" style="display:none;">
    <defs>
        <symbol id="heart-icon-outline" viewBox="0 0 113.39 113.39">
            <g fill="currentColor">
                <path d="M76.47,16.96c11.18,0,20.28,9.1,20.28,20.28,0,27.8-30.32,51.22-40.06,58.03-3.99-2.78-11.41-8.32-18.81-15.86-9.69-9.86-21.24-25.19-21.24-42.17,0-11.18,9.1-20.28,20.28-20.28,5.9,0,11.53,2.66,15.44,7.31l4.34,5.15,4.34-5.15c3.91-4.64,9.54-7.31,15.44-7.31M76.48,11.29c-7.97,0-15.01,3.67-19.77,9.32-4.76-5.65-11.8-9.32-19.77-9.32-14.33,0-25.95,11.62-25.95,25.95,0,36.59,45.73,64.85,45.73,64.85,0,0,45.73-28.26,45.73-64.85,0-14.33-11.62-25.95-25.95-25.95h-.02Z"/>
            </g>

        </symbol>

        <symbol id="heart-icon-filled" viewBox="0 0 113.39 113.39">
            <g fill="currentColor">
                <path d="M10.97,37.2c0,36.59,45.73,64.85,45.73,64.85,0,0,45.73-28.26,45.73-64.85,0-14.33-11.62-25.95-25.95-25.95-7.97,0-15.01,3.67-19.77,9.32-4.76-5.65-11.8-9.32-19.77-9.32-14.33,0-25.95,11.62-25.95,25.95h-.02Z"  />
            </g>

        </symbol>

        <symbol id="trash-can" viewBox="0 0 113.39 113.39">
            <g fill="currentColor">
                <path d="M28.35,105.15h56.65l8.5-70.87H19.84l8.51,70.87ZM65.91,51.3h4.25v36.85h-4.25v-36.85ZM43.23,51.3h4.25v36.85h-4.25v-36.85Z"  />
                <polygon points="65.2 20.11 65.2 11.61 48.19 11.61 48.19 20.11 19.84 20.11 19.84 28.62 93.54 28.62 93.54 20.11 65.2 20.11" />
            </g>
        </symbol>

        <symbol id="expand-color-palette" viewBox="0 0 113.39 113.39">
            <g fill="currentColor">
                <rect
                x="45.11"
                y="58.81"
                width="9.46"
                height="36.84"
                
                 />
                <rect
                x="31.39"
                y="58.81"
                width="9.46"
                height="36.84"
                 />
                <rect
                x="17.68"
                y="58.81"
                width="9.46"
                height="36.84"
                 />
                <rect
                x="86.23"
                y="17.71"
                width="9.46"
                height="36.84"
                />
                <rect
                x="72.52"
                y="17.71"
                width="9.46"
                height="36.84"
                 />
                <rect
                x="58.8"
                y="17.71"
                width="9.46"
                height="36.84"
                 />
                <rect
                x="17.7"
                y="45.12"
                width="36.84"
                height="9.46"
                 />
                <rect
                x="17.7"
                y="31.4"
                width="36.84"
                height="9.46"
                />
                <rect
                x="17.7"
                y="17.68"
                width="36.84"
                height="9.46"
                 />
                <rect
                x="58.83"
                y="86.24"
                width="36.84"
                height="9.46"
                />
                <rect
                x="58.83"
                y="72.52"
                width="36.84"
                height="9.46"
                />
                <rect
                x="58.83"
                y="58.81"
                width="36.84"
                height="9.46"
                 />
            </g>
        
        </symbol>


        <symbol id="brush" viewBox="0 0 100 100">
            <g fill="currentColor">
                <path
                    d="m 72.872483,0.55145987 c -0.9064,-0.5312 -1.9848,-0.68624 -3.0041,-0.432 -1.0194,0.2543 -1.8986,0.89760003 -2.4494,1.79220003 l -15.2872,24.2848001 -4.6797,7.3628 -3.3819,3.2072 c -3.658,3.4684 -5.8164,8.2286 -6.015,13.2656 l -0.2996,7.3253 c 0,0 0,0 0,0.0999 h -0.1497 c -3.627,0.3908 -7.2824,0.4451 -10.9194,0.1622 -2.0217,-0.2246 -8.7356,-1.2479 -10.6324,-5.1665 -0.1709,-0.3075 -0.2748,-0.6478 -0.3049,-0.9983 -0.0301,-0.3506 0.0143,-0.7036 0.1302,-1.0358 0.7005,-1.3596 1.8984,-2.3967 3.3444,-2.8952 0.7613,-0.3369 1.6723,-0.6739 2.6332,-1.0358 3.4068,-1.2479 7.2754,-2.683 9.0849,-5.5408 0.3211,-0.4764 0.5439,-1.0121 0.6553,-1.5756 0.1114,-0.5636 0.1093,-1.1437 -0.0063,-1.7065 -0.2109,-0.7697 -0.572,-1.4902 -1.0625,-2.1199 -0.4904,-0.6296 -1.1006,-1.1561 -1.7953,-1.549 -7.862,-4.8669 -19.6799003,-4.4551 -28.10348027,0.9734 -0.14718,0.0839 -0.27572,0.197 -0.37779,0.3323 -0.10207,0.1352 -0.17552,0.2898 -0.21589,0.4544 -0.04036,0.1645 -0.04679,0.3356 -0.01889,0.5027 0.0279,0.1672 0.08954,0.3269 0.18117,0.4694 0.09162,0.1425 0.21132,0.2649 0.35178,0.3597 0.14046,0.0947 0.29875,0.1599 0.46521997,0.1915 0.16647,0.0316 0.33763,0.029 0.50305,-0.0077 0.16542,-0.0367 0.32163,-0.1067 0.45911,-0.2058 7.66232,-4.9917 18.3571203,-5.3411 25.4329203,-0.9484 0.83,0.4433 1.4627,1.1829 1.772,2.0716 0.0521,0.2481 0.0535,0.5043 0.0041,0.753 -0.0493,0.2488 -0.1483,0.485 -0.2911,0.6946 -1.3602,2.1339 -4.9917,3.4567 -7.837,4.53 -1.0108,0.3619 -1.9468,0.7113 -2.7829,1.0857 -1.3727,0.6115 -3.8312,1.9842 -4.6798,4.3178 -0.2322,0.6486 -0.3277,1.3382 -0.2805,2.0254 0.0473,0.6873 0.2363,1.3573 0.5551,1.968 2.3835,4.9044 9.6091,6.2397 12.6041,6.5392 1.3797,0.1557 2.7672,0.2307 4.1556,0.2246 2.4335,0 4.8545,-0.1872 7.2381,-0.3744 l 1.5224,-0.1123 c 0.3232,0.1411 0.6708,0.2174 1.0233,0.2246 0.5037,3e-4 0.9971,-0.1425 1.4227,-0.4118 l 6.1523,-3.9809 c 4.2391,-2.7287 7.2371,-7.0129 8.3487,-11.9302 l 1.0482,-4.5425 3.9186,-7.6249 c 0,0 0,0 0,-0.0749 l 13.1532,-25.6076001 c 0.4805,-0.9219 0.5839,-1.9945 0.2881,-2.9912 -0.2957,-0.9967 -0.9674,-1.8393 -1.873,-2.34990003 z M 53.891383,43.19336 c -0.9782,4.2773 -3.589,8.0031 -7.2754,10.3828 l -6.1648,3.9809 0.6739,1.0483 -0.3869,-0.5367 c -0.0833,-0.1764 -0.2023,-0.3336 -0.3494,-0.4617 l -0.1123,-0.1497 0.2995,-7.3129 c 0.1669,-4.386 2.049,-8.5311 5.2413,-11.5434 l 2.8827,-2.6956 6.1149,3.4943 z m 1.7721,-6.1523 -5.4535,-3.1199 3.3819,-5.3661 4.9918,2.8328 z m 16.5726,-32.2841001 -12.4794,24.4096001 -4.817,-2.733 14.6507,-23.2115001 c 0.2155,-0.3246 0.5464,-0.5551 0.9255,-0.6447 0.3791,-0.0897 0.7781,-0.0319 1.1162,0.1618 0.3381,0.1936 0.5898,0.5085 0.7043,0.8809 0.1145,0.3724 0.0831,0.7743 -0.0879,1.1244 z"
                    
                     />
            </g>
        </symbol>

        <symbol id="stones" viewBox="0 0 100 100">
            <g fill="currentColor">
                <path
                    d="m 51.8182,67.5201 c 4.386,-1.4854 8.2943,-4.1182 11.3187,-7.6249 0.2152,-0.2515 0.5214,-0.4073 0.8514,-0.433 0.33,-0.0258 0.6567,0.0806 0.9082,0.2957 0.2516,0.2152 0.4073,0.5214 0.4331,0.8514 0.0257,0.33 -0.0807,0.6567 -0.2958,0.9082 -3.3357,3.8546 -7.6457,6.7423 -12.4793,8.3612 -0.1322,0.0231 -0.2673,0.0231 -0.3994,0 -0.2721,0.0142 -0.5414,-0.0611 -0.7667,-0.2143 -0.2254,-0.1532 -0.3944,-0.376 -0.4812,-0.6343 -0.0792,-0.321 -0.0277,-0.6604 0.1431,-0.9435 0.1708,-0.2831 0.447,-0.4869 0.7679,-0.5665 z M 20.8569,32.4282 c -0.1345,-0.7293 -0.2138,-1.4676 -0.2371,-2.2088 -0.2124,-2.1157 0.0696,-4.2517 0.8237,-6.2397 1.174,-2.1465 2.971,-3.8869 5.1539,-4.9918 1.7974,-1.065 3.6559,-2.0234 5.5658,-2.8702 -0.9597,-0.2083 -1.8993,-0.5006 -2.8078,-0.8736 -2.8703,-1.1481 -4.5675,-3.0824 -4.6673,-5.27871 7e-4,-0.88373 0.2156,-1.75411 0.6264,-2.53655 0.4108,-0.78245 1.0052,-1.45363 1.7322,-1.95602 4.9917,-3.7438 12.4793,-1.63479 16.1358,-0.63644 1.3873,0.31297 2.6956,0.90764 3.8436,1.7471 0.6697,0.51047 1.1994,1.18207 1.5398,1.95229 0.3404,0.77023 0.4804,1.61403 0.407,2.45293 -0.2187,1.2075 -0.8878,2.2869 -1.8719,3.02 3.3624,0.7643 6.4966,2.3122 9.1473,4.5175 2.6831,2.2588 3.9685,4.8794 3.6315,7.3628 -0.4185,2.1137 -1.651,3.9783 -3.4318,5.1914 -0.9508,0.72 -1.9659,1.3508 -3.0325,1.8844 1.6249,0.6895 3.0748,1.7342 4.243,3.0574 1.5851,1.8193 2.435,4.1642 2.3836,6.5767 l 0.287,0.0998 c 5.2164,1.9093 11.3811,6.327 12.704,13.0534 0.3663,2.488 0.1415,5.0273 -0.6564,7.4122 -0.7979,2.3849 -2.1463,4.5484 -3.936,6.315 -3.5078,3.4056 -7.9229,5.7279 -12.7165,6.689 -4.5997,0.909 -9.2757,1.377 -13.9644,1.3977 -5.5782,0.2121 -11.1191,0.4118 -16.6848,0.599 -0.961,0 -1.9593,0.0748 -2.9826,0.0748 -2.406,0.0704 -4.8056,-0.2844 -7.0883,-1.0482 -3.2072,-1.248 -6.5017,-4.1931 -6.6265,-8.1989 -0.03447,-2.0687 0.61475,-4.091 1.8469,-5.753 l 1.9718,-2.3711 1.4476,-1.6348 C 11.148,58.6847 9.15132,57.6739 8.40256,55.9393 c -1.51,-3.619 1.43513,-7.9993 4.06824,-11.8679 1.5475,-2.2837 3.1573,-4.6423 3.2197,-6.04 0.1123,-2.5707 1.9842,-4.5674 5.1664,-5.6032 z m 30.824,19.318 c -6.6265,3.1573 -14.1391,6.7389 -22.1134,7.2879 -3.1846,0.4871 -6.4,0.7457 -9.6215,0.7738 -1.1107,0 -2.2463,0 -3.332,-0.1498 l -2.4959,2.8328 -1.8719,2.2588 c -0.9029,1.1945 -1.4012,2.6459 -1.4226,4.1431 0.0998,2.8328 2.6705,4.9918 4.9917,5.9277 2.8453,1.0607 6.0275,0.936 9.1099,0.8236 5.5575,-0.183 11.1066,-0.3827 16.6474,-0.599 4.5413,-0.0171 9.0707,-0.4642 13.5277,-1.3353 4.3249,-0.8569 8.3136,-2.9357 11.4934,-5.99 1.5112,-1.4813 2.6548,-3.2955 3.3395,-5.2977 0.6848,-2.0022 0.8916,-4.1368 0.604,-6.2332 C 69.464,50.5482 64.1478,46.7545 59.493,45.0698 v 0.0998 c -1.3603,3.2696 -4.6049,5.0417 -7.8121,6.5766 z m -13.1532,-37.75 c 0.9343,-0.2015 1.8805,-0.3433 2.8328,-0.4243 0.574,-0.1248 1.1606,-0.2621 1.7346,-0.4368 0.8095,-0.1971 1.581,-0.5259 2.2837,-0.9734 0.2669,-0.1717 0.497,-0.3947 0.6769,-0.656 0.18,-0.2614 0.3062,-0.5559 0.3714,-0.8664 C 46.4423,10.2308 46.3569,9.82489 46.1785,9.45715 46,9.08942 45.734,8.77113 45.4038,8.53026 44.5137,7.92468 43.5129,7.50061 42.4587,7.28233 39.7865,6.44937 37.0184,5.96286 34.2223,5.83472 32.1833,5.73675 30.1679,6.30631 28.4818,7.45704 28.085,7.72087 27.7554,8.07378 27.5192,8.48762 c -0.2361,0.41384 -0.3723,0.87716 -0.3976,1.35297 0.0748,1.73461 2.3835,2.79541 3.0948,3.08241 2.6485,1.0023 5.4951,1.3698 8.3113,1.0732 z M 23.1157,30.132 c 0,1.4102 0.2371,3.332 1.3353,3.8686 0.6121,0.1951 1.2594,0.2547 1.8969,0.1747 l 9.9834,-0.4243 c 3.3056,-0.0554 6.6018,-0.3684 9.8587,-0.9359 3.1662,-0.5421 6.1595,-1.8249 8.7355,-3.7438 1.2565,-0.8281 2.1493,-2.1048 2.4959,-3.5691 0.2995,-2.2588 -1.8345,-4.3304 -2.7704,-5.129 -3.4401,-2.8663 -7.7771,-4.4341 -12.2547,-4.4302 h -0.624 c -0.9609,0.1872 -1.9218,0.3369 -2.8578,0.4243 -3.8631,0.9929 -7.5562,2.5577 -10.9568,4.6423 -1.7405,0.8561 -3.1902,2.206 -4.1681,3.8811 -0.6182,1.6736 -0.8486,3.4657 -0.6739,5.2413 z m -4.9917,8.0117 c -0.0999,2.109 -1.7471,4.53 -3.6565,7.3379 -2.2712,3.332 -4.84196,7.1132 -3.8311,9.4718 1.2479,2.8827 11.6182,2.6706 18.5942,1.5974 7.6124,-0.5242 14.8878,-3.9934 21.3022,-7.0509 2.8827,-1.3852 5.5533,-2.8203 6.5392,-5.2538 0.1219,-0.3236 0.2138,-0.6578 0.2745,-0.9983 0.1431,-0.9974 0.0653,-2.014 -0.228,-2.9779 -0.2933,-0.964 -0.7948,-1.8517 -1.4692,-2.6004 -1.5612,-1.683 -3.6216,-2.8203 -5.8777,-3.2446 -1.0423,0.3448 -2.1051,0.624 -3.1823,0.8361 -3.3805,0.5916 -6.8017,0.9212 -10.233,0.9859 l -9.9835,0.4243 h -0.7612 c -0.7803,0.0262 -1.5564,-0.1231 -2.2713,-0.4368 -0.6725,-0.3332 -1.2387,-0.8475 -1.6348,-1.485 -1.5349,0.4991 -3.4318,1.4725 -3.5191,3.3943 z m -0.3245,15.1125 c 1.8638,0.7348 3.8494,1.1116 5.8528,1.1107 1.5462,-0.0017 3.0843,-0.2244 4.5675,-0.6614 0.3177,-0.096 0.5843,-0.3143 0.7411,-0.6068 0.1568,-0.2926 0.1909,-0.6354 0.095,-0.9532 -0.096,-0.3177 -0.3143,-0.5843 -0.6068,-0.7411 -0.2926,-0.1568 -0.6354,-0.191 -0.9531,-0.095 -2.871,0.8621 -5.9489,0.7302 -8.7356,-0.3743 -0.3078,-0.1275 -0.6536,-0.1274 -0.9614,1e-4 -0.3077,0.1276 -0.5522,0.3722 -0.6796,0.68 -0.1274,0.3078 -0.1274,0.6536 2e-4,0.9613 0.1275,0.3078 0.3721,0.5523 0.6799,0.6797 z M 45.8531,21.5337 c 1.3823,0.5804 2.5813,1.5249 3.4692,2.733 0.1162,0.159 0.2683,0.2882 0.444,0.3772 0.1757,0.0889 0.3699,0.135 0.5668,0.1345 0.2644,9e-4 0.5222,-0.0821 0.7363,-0.2371 0.133,-0.0965 0.2457,-0.2183 0.3315,-0.3584 0.0859,-0.1401 0.1432,-0.2958 0.1687,-0.4582 0.0255,-0.1623 0.0187,-0.3281 -0.02,-0.4878 -0.0387,-0.1597 -0.1086,-0.3101 -0.2056,-0.4428 -1.156,-1.5697 -2.7178,-2.7949 -4.5176,-3.5441 -0.1522,-0.0811 -0.3196,-0.1299 -0.4916,-0.143 -0.172,-0.0132 -0.3449,0.0094 -0.5078,0.0664 -0.1628,0.057 -0.312,0.1471 -0.4383,0.2647 -0.1262,0.1176 -0.2267,0.2601 -0.2951,0.4185 -0.0683,0.1584 -0.1031,0.3293 -0.1021,0.5018 10e-4,0.1725 0.0377,0.343 0.1079,0.5006 0.0702,0.1576 0.1723,0.2989 0.2999,0.415 0.1275,0.1162 0.2778,0.2046 0.4413,0.2597 z"
         />
            </g>
        </symbol>


        <symbol id="carp" viewBox="0 0 100 100">
            <g fill="currentColor">
                <path
                    d="m 44.4838,66.8416 c -0.0902,-0.1382 -0.1522,-0.293 -0.1822,-0.4552 -0.03,-0.1623 -0.0275,-0.329 0.0073,-0.4903 0.0348,-0.1613 0.1013,-0.3141 0.1956,-0.4496 0.0943,-0.1355 0.2145,-0.2509 0.3537,-0.3396 0.9149,-0.5783 1.975,-0.8855 3.0574,-0.886 0.331,0 0.6484,0.1315 0.8824,0.3655 0.234,0.234 0.3655,0.5515 0.3655,0.8824 0,0.331 -0.1315,0.6484 -0.3655,0.8825 -0.234,0.234 -0.5514,0.3655 -0.8824,0.3655 -0.5888,-0.0024 -1.1655,0.1667 -1.6598,0.4867 -0.1374,0.0908 -0.2915,0.1534 -0.4533,0.1844 -0.1618,0.031 -0.3281,0.0296 -0.4894,-0.0041 -0.1612,-0.0336 -0.3142,-0.0989 -0.4501,-0.1919 -0.136,-0.0931 -0.2521,-0.2122 -0.3418,-0.3503 z m 8.4485,-4.6673 c 0.331,0 0.6484,-0.1315 0.8824,-0.3655 0.234,-0.2341 0.3655,-0.5515 0.3655,-0.8824 -0.0085,-0.5936 0.161,-1.176 0.4867,-1.6723 0.182,-0.2813 0.2449,-0.6234 0.1747,-0.9511 -0.0702,-0.3276 -0.2677,-0.6139 -0.5491,-0.796 -0.2813,-0.182 -0.6234,-0.2448 -0.9511,-0.1746 -0.3276,0.0702 -0.6139,0.2677 -0.796,0.549 -0.587,0.9156 -0.8949,1.9823 -0.886,3.0699 0.0032,0.1639 0.0387,0.3256 0.1045,0.4757 0.0657,0.1502 0.1604,0.2859 0.2786,0.3995 0.1182,0.1136 0.2576,0.2027 0.4103,0.2624 0.1527,0.0597 0.3156,0.0887 0.4795,0.0854 z M 24.4919,58.6302 c 1.5502,0.0421 3.0873,0.2983 4.5674,0.7612 -1.0369,-2.3807 -1.815,-4.8658 -2.3212,-7.4127 -2.1854,-10.2191 -0.7563,-20.8799 4.0434,-30.1626 1.2479,-3.2321 2.8203,-7.6124 3.02,-11.1316 C 33.8691,9.65515 33.823,8.62145 33.6642,7.60214 33.5301,6.74146 33.6715,5.8604 34.0682,5.0849 34.4649,4.30941 35.0966,3.67918 35.873,3.28429 c 0.7975,-0.43243 1.7125,-0.5979 2.6109,-0.47213 0.8984,0.12578 1.7328,0.53617 2.3809,1.17098 1.5184,1.43577 2.7507,3.14657 3.6314,5.04165 l 0.0999,0.22463 c 0.1719,0.533 0.4819,1.01098 0.8985,1.38518 0.4721,0.1666 0.9791,0.2096 1.4726,0.1248 h 0.1372 c 2.6522,-0.3136 5.339,-0.1573 7.9369,0.4618 0.9332,0.2568 1.7461,0.834 2.2961,1.6305 0.5499,0.7964 0.8018,1.7611 0.7114,2.7247 -0.0596,0.9803 -0.4603,1.9087 -1.1327,2.6244 -0.6724,0.7157 -1.5741,1.1736 -2.5487,1.2942 l -4.9917,0.6614 c -3.3247,0.3452 -6.609,1.0055 -9.8088,1.9717 -1.9861,0.674 -3.8808,1.592 -5.6407,2.733 0.7488,4.8669 3.7439,13.7272 12.2048,18.3072 1.248,0.6863 2.4959,1.3976 3.6315,2.0965 -0.2064,-1.0198 -0.3275,-2.055 -0.3619,-3.0949 v -1.3602 c -0.0049,-1.0841 -0.0674,-2.1672 -0.1872,-3.2447 -0.058,-0.475 0.012,-0.9569 0.2029,-1.3958 0.1909,-0.4388 0.4957,-0.8186 0.8828,-1.1 0.3922,-0.2823 0.8538,-0.4524 1.3353,-0.492 0.4816,-0.0396 0.9648,0.0529 1.3977,0.2673 0.5117,0.2621 1.0483,0.4867 1.5724,0.7238 2.055,0.7302 3.913,1.9261 5.4285,3.4943 1.6223,1.9467 2.3212,4.6423 2.1465,8.2488 0,0.8611 -0.1248,1.7097 -0.1997,2.5707 -0.2226,1.6543 -0.2728,3.3272 -0.1497,4.9918 0.0311,0.1397 0.0311,0.2846 0,0.4243 1.8465,2.2044 3.0434,4.879 3.4567,7.7247 0.4368,4.1182 -1.3852,7.9743 -5.4285,11.456 -2.3629,2.0812 -5.4122,3.2147 -8.5608,3.1822 -1.8076,-0.0154 -3.6,-0.3317 -5.3037,-0.9359 -3.3725,-1.2403 -6.4374,-3.1941 -8.9852,-5.728 -1.582,-0.0918 -3.169,-0.0417 -4.7421,0.1497 -0.8611,0.0874 -1.7222,0.1623 -2.5832,0.2122 h -1.0358 c -2.6143,0.1851 -5.2073,-0.5817 -7.3004,-2.1589 -1.5866,-1.5126 -2.7962,-3.3761 -3.5317,-5.441 -0.2246,-0.5117 -0.4617,-1.0358 -0.7113,-1.535 -0.2146,-0.4339 -0.3072,-0.9181 -0.2679,-1.4006 0.0393,-0.4825 0.209,-0.9453 0.491,-1.3388 0.282,-0.3935 0.6657,-0.703 1.11,-0.8953 0.4442,-0.1923 0.9324,-0.2602 1.4124,-0.1964 1.0897,0.1239 2.1853,0.1906 3.282,0.1996 z m 27.155,-21.3896 c 0.1321,1.1643 0.2029,2.3349 0.2122,3.5067 v 1.3228 c -0.0472,1.9877 0.4816,3.9466 1.5224,5.6406 2.0829,1.443 4.0407,3.0585 5.8528,4.8295 0,-0.9609 0.1124,-1.8968 0.1997,-2.8328 0.0874,-0.9359 0.1622,-1.6348 0.1997,-2.4958 0.1373,-2.9077 -0.3869,-5.1041 -1.5724,-6.5267 -1.2745,-1.271 -2.8184,-2.2392 -4.5175,-2.8328 -0.5491,-0.2496 -1.1107,-0.4992 -1.6473,-0.7613 -0.028,-0.0177 -0.0605,-0.0272 -0.0936,-0.0272 -0.0331,0 -0.0656,0.0095 -0.0936,0.0272 -0.0226,0.0173 -0.0403,0.0403 -0.0513,0.0665 -0.0109,0.0263 -0.0147,0.055 -0.0111,0.0833 z M 33.7266,22.0532 c 1.584,-0.9249 3.2562,-1.6899 4.9917,-2.2837 3.3736,-1.0252 6.838,-1.7231 10.3454,-2.0841 L 53.993,17.024 c 0.4087,-0.0474 0.787,-0.2396 1.0662,-0.5417 0.2793,-0.3022 0.4412,-0.6944 0.4563,-1.1055 0.05,-0.379 -0.0387,-0.7633 -0.2496,-1.0821 -0.211,-0.3187 -0.5301,-0.5505 -0.8985,-0.6526 -2.342,-0.5234 -4.7563,-0.6416 -7.1382,-0.3494 H 47.092 C 46.1077,13.4334 45.104,13.277 44.2092,12.8435 43.316,12.2407 42.6418,11.3652 42.2874,10.3476 L 42.1876,10.1354 C 41.4562,8.50159 40.4183,7.02314 39.1301,5.78016 38.9658,5.61812 38.7708,5.49051 38.5565,5.40479 38.3422,5.31908 38.113,5.27699 37.8822,5.28099 c -0.3094,-2e-5 -0.614,0.07719 -0.886,0.22462 -0.3173,0.14615 -0.5773,0.39299 -0.7398,0.70216 -0.1625,0.30917 -0.2183,0.66336 -0.1587,1.00751 0.2001,1.19528 0.2754,2.40815 0.2246,3.61902 -0.3856,3.3955 -1.225,6.7239 -2.4959,9.8961 0.0991,0.2742 0.0991,0.5744 0,0.8486 0,0.1123 -0.0749,0.2745 -0.0998,0.4742 z m -4.53,29.4013 c 2.0716,10.62 9.2971,19.967 17.5459,22.8747 1.8836,0.7645 3.9394,1.0034 5.9482,0.6913 2.0087,-0.312 3.8951,-1.1634 5.4579,-2.4634 3.3695,-2.9202 4.9044,-6.0525 4.5675,-9.3096 C 62.2419,58.8922 58.523,54.225 51.8591,49.5202 H 51.7967 C 49.5869,47.9908 47.2957,46.5828 44.933,45.3022 38.7913,41.805 34.2793,36.0237 32.3788,29.2164 c -0.3092,1.1512 -0.5057,2.3298 -0.5865,3.5191 -0.2209,2.3396 0.4524,4.676 1.8844,6.5392 0.1622,0.1872 0.3369,0.3619 0.5116,0.5491 0.5972,0.5612 1.0951,1.2194 1.4726,1.9468 0.3773,0.9559 0.5474,1.981 0.4992,3.0075 0,0.312 0,0.624 0,0.9235 0.1324,1.408 0.6998,2.7399 1.6233,3.811 0.9235,1.0711 2.1574,1.8283 3.5306,2.1666 0.331,0.0347 0.6346,0.1995 0.8441,0.4581 0.2094,0.2586 0.3076,0.5899 0.2728,0.9208 -0.0347,0.331 -0.1995,0.6346 -0.4581,0.8441 -0.2587,0.2094 -0.5899,0.3076 -0.9208,0.2728 -0.0911,0.013 -0.1835,0.013 -0.2746,0 -1.886,-0.4472 -3.5837,-1.4757 -4.8534,-2.9402 -1.2697,-1.4645 -2.0471,-3.2909 -2.2224,-5.2213 0,-0.366 0,-0.7279 0,-1.0857 0.0405,-0.6771 -0.0528,-1.3556 -0.2745,-1.9967 -0.2664,-0.465 -0.6032,-0.8859 -0.9984,-1.2479 -0.2121,-0.2121 -0.4118,-0.4243 -0.599,-0.6489 -1.7311,-2.1489 -2.6186,-4.8557 -2.4958,-7.6124 -1.2624,5.94 -1.3091,12.0741 -0.1373,18.0326 z m -4.8046,9.6341 c -0.4243,0 -0.861,0 -1.2479,0 -1.1606,0 -2.3586,0 -3.5441,-0.2122 -0.0302,-0.0077 -0.062,-0.0059 -0.0911,0.0053 -0.0291,0.0112 -0.054,0.0311 -0.0712,0.0571 -0.0177,0.028 -0.0271,0.0605 -0.0271,0.0936 0,0.0332 0.0094,0.0656 0.0271,0.0936 0.2621,0.5242 0.4992,1.0732 0.7488,1.6223 0.5959,1.7083 1.5683,3.2608 2.8453,4.5425 1.4476,1.2479 3.5691,1.7222 6.5267,1.5724 0.8111,0 1.6348,-0.1248 2.4958,-0.1996 0.8611,-0.0749 1.7347,-0.1623 2.6332,-0.1997 -1.1766,-1.4017 -2.2446,-2.8911 -3.1947,-4.4551 -0.1476,-0.0894 -0.2751,-0.2084 -0.3744,-0.3495 -1.1855,-1.5724 -3.3569,-2.396 -6.7264,-2.5333 z" />
            </g>

        </symbol>

        <symbol id="pagoda" viewBox="0 0 100 100">
            <g fill="currentColor">
               <path
                    d="m 27.2464,78.1405 h 26.6808 c 1.4265,0 2.7945,-0.5667 3.8032,-1.5754 1.0087,-1.0087 1.5754,-2.3767 1.5754,-3.8032 v -9.9835 c 3.9302,-0.5673 7.7933,-1.5289 11.5309,-2.8702 0.5917,-0.2213 1.0863,-0.6443 1.3968,-1.1945 0.3104,-0.5501 0.4168,-1.1922 0.3004,-1.813 -0.1002,-0.6251 -0.4133,-1.1964 -0.8863,-1.6171 -0.473,-0.4207 -1.0769,-0.6651 -1.7094,-0.6916 -3.8707,-0.2649 -7.5736,-1.6818 -10.6324,-4.0683 -1.0036,-0.755 -2.2259,-1.1624 -3.4818,-1.1606 h -0.3119 v -8.411 c 1.3294,-0.2824 2.6352,-0.6662 3.906,-1.1481 0.4651,-0.1734 0.8546,-0.5044 1.1009,-0.9353 0.2463,-0.431 0.3336,-0.9346 0.2469,-1.4233 -0.0804,-0.498 -0.3306,-0.9528 -0.7082,-1.2872 -0.3776,-0.3344 -0.8594,-0.5278 -1.3634,-0.5473 -2.1401,-0.1444 -4.1974,-0.8834 -5.9402,-2.134 -0.9401,-0.653 -2.0504,-1.0173 -3.1947,-1.0482 v -6.7763 c 1.2751,-0.227 2.5278,-0.5652 3.7438,-1.0108 0.3964,-0.1595 0.7263,-0.4497 0.9349,-0.8226 0.2087,-0.3728 0.2835,-0.8058 0.2121,-1.227 -0.0714,-0.4212 -0.2848,-0.8054 -0.6047,-1.0886 -0.3198,-0.2832 -0.727,-0.4485 -1.1538,-0.4684 -1.5755,-0.1094 -3.073,-0.7268 -4.2679,-1.7596 L 41.8347,11.663 V 4.51239 c 0,-0.33097 -0.1315,-0.64839 -0.3655,-0.88242 -0.234,-0.23404 -0.5515,-0.36552 -0.8824,-0.36552 -0.331,0 -0.6484,0.13148 -0.8824,0.36552 C 39.4703,3.864 39.3388,4.18142 39.3388,4.51239 V 11.663 l -6.5516,7.6124 c -1.1949,1.0328 -2.6924,1.6502 -4.2679,1.7596 -0.4268,0.0199 -0.834,0.1852 -1.1538,0.4684 -0.3199,0.2832 -0.5333,0.6674 -0.6047,1.0886 -0.0714,0.4212 0.0034,0.8542 0.2121,1.227 0.2086,0.3729 0.5385,0.6631 0.9349,0.8226 1.216,0.4456 2.4687,0.7838 3.7438,1.0108 v 6.7763 c -1.1443,0.0309 -2.2546,0.3952 -3.1947,1.0482 -1.7428,1.2506 -3.8001,1.9896 -5.9402,2.134 -0.504,0.0195 -0.9858,0.2129 -1.3634,0.5473 -0.3776,0.3344 -0.6279,0.7892 -0.7082,1.2872 -0.0823,0.4981 0.0158,1.0092 0.2765,1.4415 0.2608,0.4324 0.6672,0.7575 1.1462,0.9171 1.2707,0.4819 2.5766,0.8657 3.906,1.1481 v 8.411 h -0.312 c -1.2559,-0.0018 -2.4781,0.4056 -3.4817,1.1606 -3.0786,2.3779 -6.7998,3.7777 -10.6823,4.0184 -0.6434,0.0123 -1.262,0.2502 -1.74787,0.6721 -0.48583,0.422 -0.808,1.0012 -0.91026,1.6365 -0.11642,0.6209 -0.01004,1.263 0.30042,1.8131 0.31047,0.5502 0.80509,0.9732 1.39681,1.1945 3.7375,1.3412 7.6006,2.3028 11.5309,2.8702 v 9.9835 c -0.0066,0.7105 0.1276,1.4153 0.395,2.0736 0.2673,0.6583 0.6625,1.2572 1.1626,1.7619 0.5001,0.5048 1.0952,0.9054 1.7511,1.1788 0.6558,0.2735 1.3593,0.4142 2.0699,0.4142 z m 0,-2.4959 c -0.7636,-0.0033 -1.4949,-0.308 -2.0348,-0.8479 -0.5399,-0.5399 -0.8447,-1.2713 -0.848,-2.0348 v -9.5966 c 2.629,0.3744 5.5034,0.6988 8.6233,0.9734 V 75.707 Z m 8.2738,0 V 64.2884 l 2.6456,0.1872 c 0.8111,0 1.6473,0.0749 2.4959,0.0749 0.8486,0 1.6472,0 2.4958,-0.0749 l 2.4959,-0.1747 -0.0749,11.3437 z m 21.2897,-2.8827 c -0.0033,0.7635 -0.308,1.4949 -0.8479,2.0348 -0.5399,0.5399 -1.2713,0.8446 -2.0348,0.8479 H 48.0744 V 64.0888 c 3.1822,-0.2746 6.1024,-0.5991 8.7355,-0.9859 z M 31.2273,23.0068 c 1.2569,-0.4505 2.414,-1.1414 3.4068,-2.0342 l 5.9527,-6.9385 5.9526,6.9385 0.0874,0.0874 c 0.9717,0.8584 2.0983,1.5234 3.3195,1.9592 -2.7945,0.564 -5.6266,0.9227 -8.4735,1.0733 -0.5901,0.0374 -1.182,0.0374 -1.7721,0 -2.8479,-0.1459 -5.6807,-0.5089 -8.4734,-1.0857 z m 15.7863,3.0574 v 6.352 h -5.1789 v -5.8528 c 1.9093,-0.1248 3.644,-0.2995 5.1789,-0.4992 z m -7.6748,0.4992 v 5.8528 h -5.1789 v -6.352 c 1.535,0.1997 3.2696,0.3744 5.1789,0.4992 z M 24.0891,37.957 c 2.0975,-0.3611 4.0858,-1.1931 5.8154,-2.4335 0.5674,-0.4055 1.2493,-0.6196 1.9467,-0.6114 h 17.4711 c 0.6847,-3e-4 1.3523,0.2135 1.9094,0.6114 1.7295,1.2404 3.7178,2.0724 5.8153,2.4335 -4.9332,1.2899 -9.9922,2.0389 -15.0875,2.2338 -0.9141,0.0624 -1.8314,0.0624 -2.7455,0 C 34.1055,40.0052 29.0331,39.2561 24.0891,37.957 Z m 28.8772,3.5067 v 7.8994 h -4.8919 v -7.2005 c 1.772,-0.2122 3.4068,-0.4368 4.8919,-0.6989 z m -7.4876,0.9484 v 6.951 h -9.9835 v -6.9634 c 1.1356,0.1123 2.2962,0.1996 3.5317,0.287 0.5116,0 1.0357,0 1.5474,0 0.5116,0 1.0358,0 1.5474,0 1.1981,-0.0749 2.3337,-0.1747 3.4568,-0.2746 z m -12.4794,-0.262 v 7.213 h -4.792 v -7.8994 c 1.4476,0.2621 3.0574,0.4867 4.8045,0.6864 z M 11.2479,57.5246 c -0.0624,0 -0.1748,0 -0.1498,-0.262 0.025,-0.2621 0.1747,-0.2247 0.2371,-0.2247 4.3932,-0.2664 8.6055,-1.8444 12.0925,-4.53 0.5684,-0.4264 1.2611,-0.6543 1.9717,-0.6489 h 30.3747 c 0.7106,-0.0054 1.4033,0.2225 1.9718,0.6489 3.4869,2.6856 7.6992,4.2636 12.0924,4.53 0.0624,0 0.1997,0 0.2372,0.2247 0.0374,0.2246 -0.0874,0.2495 -0.1498,0.262 -3.7438,1.4726 -11.481,3.4318 -27.0427,4.4551 -1.5292,0.0999 -3.0633,0.0999 -4.5924,0 C 22.7288,60.9564 15.0041,58.9972 11.2479,57.5246 Z"
         />
            </g>

        </symbol>

        

        



    </defs>
    
    

</svg>