<?xml version="1.0" encoding="UTF-8" standalone="no"?>
<!-- Created with Inkscape (http://www.inkscape.org/) -->

<svg
   width="12.838315mm"
   height="19.814796mm"
   viewBox="0 0 12.838315 19.814796"
   version="1.1"
   id="svg1"
   xml:space="preserve"
   inkscape:export-filename="bitmap.png"
   inkscape:export-xdpi="2.5656567"
   inkscape:export-ydpi="2.5656567"
   xmlns:inkscape="http://www.inkscape.org/namespaces/inkscape"
   xmlns:sodipodi="http://sodipodi.sourceforge.net/DTD/sodipodi-0.dtd"
   xmlns="http://www.w3.org/2000/svg"
   xmlns:svg="http://www.w3.org/2000/svg"><sodipodi:namedview
     id="namedview1"
     pagecolor="#ffffff"
     bordercolor="#000000"
     borderopacity="0.25"
     inkscape:showpageshadow="2"
     inkscape:pageopacity="0.0"
     inkscape:pagecheckerboard="0"
     inkscape:deskcolor="#d1d1d1"
     inkscape:document-units="mm" /><defs
     id="defs1" /><g
     inkscape:label="Layer 1"
     inkscape:groupmode="layer"
     id="layer1"
     transform="translate(-149.16957,-137.86555)"><g
       style="fill:#a90636;fill-opacity:1"
       id="g4"
       transform="matrix(0.26458333,0,0,0.26458333,144.71733,137.13234)"><path
         d="m 44.4838,66.8416 c -0.0902,-0.1382 -0.1522,-0.293 -0.1822,-0.4552 -0.03,-0.1623 -0.0275,-0.329 0.0073,-0.4903 0.0348,-0.1613 0.1013,-0.3141 0.1956,-0.4496 0.0943,-0.1355 0.2145,-0.2509 0.3537,-0.3396 0.9149,-0.5783 1.975,-0.8855 3.0574,-0.886 0.331,0 0.6484,0.1315 0.8824,0.3655 0.234,0.234 0.3655,0.5515 0.3655,0.8824 0,0.331 -0.1315,0.6484 -0.3655,0.8825 -0.234,0.234 -0.5514,0.3655 -0.8824,0.3655 -0.5888,-0.0024 -1.1655,0.1667 -1.6598,0.4867 -0.1374,0.0908 -0.2915,0.1534 -0.4533,0.1844 -0.1618,0.031 -0.3281,0.0296 -0.4894,-0.0041 -0.1612,-0.0336 -0.3142,-0.0989 -0.4501,-0.1919 -0.136,-0.0931 -0.2521,-0.2122 -0.3418,-0.3503 z m 8.4485,-4.6673 c 0.331,0 0.6484,-0.1315 0.8824,-0.3655 0.234,-0.2341 0.3655,-0.5515 0.3655,-0.8824 -0.0085,-0.5936 0.161,-1.176 0.4867,-1.6723 0.182,-0.2813 0.2449,-0.6234 0.1747,-0.9511 -0.0702,-0.3276 -0.2677,-0.6139 -0.5491,-0.796 -0.2813,-0.182 -0.6234,-0.2448 -0.9511,-0.1746 -0.3276,0.0702 -0.6139,0.2677 -0.796,0.549 -0.587,0.9156 -0.8949,1.9823 -0.886,3.0699 0.0032,0.1639 0.0387,0.3256 0.1045,0.4757 0.0657,0.1502 0.1604,0.2859 0.2786,0.3995 0.1182,0.1136 0.2576,0.2027 0.4103,0.2624 0.1527,0.0597 0.3156,0.0887 0.4795,0.0854 z M 24.4919,58.6302 c 1.5502,0.0421 3.0873,0.2983 4.5674,0.7612 -1.0369,-2.3807 -1.815,-4.8658 -2.3212,-7.4127 -2.1854,-10.2191 -0.7563,-20.8799 4.0434,-30.1626 1.2479,-3.2321 2.8203,-7.6124 3.02,-11.1316 C 33.8691,9.65515 33.823,8.62145 33.6642,7.60214 33.5301,6.74146 33.6715,5.8604 34.0682,5.0849 34.4649,4.30941 35.0966,3.67918 35.873,3.28429 c 0.7975,-0.43243 1.7125,-0.5979 2.6109,-0.47213 0.8984,0.12578 1.7328,0.53617 2.3809,1.17098 1.5184,1.43577 2.7507,3.14657 3.6314,5.04165 l 0.0999,0.22463 c 0.1719,0.533 0.4819,1.01098 0.8985,1.38518 0.4721,0.1666 0.9791,0.2096 1.4726,0.1248 h 0.1372 c 2.6522,-0.3136 5.339,-0.1573 7.9369,0.4618 0.9332,0.2568 1.7461,0.834 2.2961,1.6305 0.5499,0.7964 0.8018,1.7611 0.7114,2.7247 -0.0596,0.9803 -0.4603,1.9087 -1.1327,2.6244 -0.6724,0.7157 -1.5741,1.1736 -2.5487,1.2942 l -4.9917,0.6614 c -3.3247,0.3452 -6.609,1.0055 -9.8088,1.9717 -1.9861,0.674 -3.8808,1.592 -5.6407,2.733 0.7488,4.8669 3.7439,13.7272 12.2048,18.3072 1.248,0.6863 2.4959,1.3976 3.6315,2.0965 -0.2064,-1.0198 -0.3275,-2.055 -0.3619,-3.0949 v -1.3602 c -0.0049,-1.0841 -0.0674,-2.1672 -0.1872,-3.2447 -0.058,-0.475 0.012,-0.9569 0.2029,-1.3958 0.1909,-0.4388 0.4957,-0.8186 0.8828,-1.1 0.3922,-0.2823 0.8538,-0.4524 1.3353,-0.492 0.4816,-0.0396 0.9648,0.0529 1.3977,0.2673 0.5117,0.2621 1.0483,0.4867 1.5724,0.7238 2.055,0.7302 3.913,1.9261 5.4285,3.4943 1.6223,1.9467 2.3212,4.6423 2.1465,8.2488 0,0.8611 -0.1248,1.7097 -0.1997,2.5707 -0.2226,1.6543 -0.2728,3.3272 -0.1497,4.9918 0.0311,0.1397 0.0311,0.2846 0,0.4243 1.8465,2.2044 3.0434,4.879 3.4567,7.7247 0.4368,4.1182 -1.3852,7.9743 -5.4285,11.456 -2.3629,2.0812 -5.4122,3.2147 -8.5608,3.1822 -1.8076,-0.0154 -3.6,-0.3317 -5.3037,-0.9359 -3.3725,-1.2403 -6.4374,-3.1941 -8.9852,-5.728 -1.582,-0.0918 -3.169,-0.0417 -4.7421,0.1497 -0.8611,0.0874 -1.7222,0.1623 -2.5832,0.2122 h -1.0358 c -2.6143,0.1851 -5.2073,-0.5817 -7.3004,-2.1589 -1.5866,-1.5126 -2.7962,-3.3761 -3.5317,-5.441 -0.2246,-0.5117 -0.4617,-1.0358 -0.7113,-1.535 -0.2146,-0.4339 -0.3072,-0.9181 -0.2679,-1.4006 0.0393,-0.4825 0.209,-0.9453 0.491,-1.3388 0.282,-0.3935 0.6657,-0.703 1.11,-0.8953 0.4442,-0.1923 0.9324,-0.2602 1.4124,-0.1964 1.0897,0.1239 2.1853,0.1906 3.282,0.1996 z m 27.155,-21.3896 c 0.1321,1.1643 0.2029,2.3349 0.2122,3.5067 v 1.3228 c -0.0472,1.9877 0.4816,3.9466 1.5224,5.6406 2.0829,1.443 4.0407,3.0585 5.8528,4.8295 0,-0.9609 0.1124,-1.8968 0.1997,-2.8328 0.0874,-0.9359 0.1622,-1.6348 0.1997,-2.4958 0.1373,-2.9077 -0.3869,-5.1041 -1.5724,-6.5267 -1.2745,-1.271 -2.8184,-2.2392 -4.5175,-2.8328 -0.5491,-0.2496 -1.1107,-0.4992 -1.6473,-0.7613 -0.028,-0.0177 -0.0605,-0.0272 -0.0936,-0.0272 -0.0331,0 -0.0656,0.0095 -0.0936,0.0272 -0.0226,0.0173 -0.0403,0.0403 -0.0513,0.0665 -0.0109,0.0263 -0.0147,0.055 -0.0111,0.0833 z M 33.7266,22.0532 c 1.584,-0.9249 3.2562,-1.6899 4.9917,-2.2837 3.3736,-1.0252 6.838,-1.7231 10.3454,-2.0841 L 53.993,17.024 c 0.4087,-0.0474 0.787,-0.2396 1.0662,-0.5417 0.2793,-0.3022 0.4412,-0.6944 0.4563,-1.1055 0.05,-0.379 -0.0387,-0.7633 -0.2496,-1.0821 -0.211,-0.3187 -0.5301,-0.5505 -0.8985,-0.6526 -2.342,-0.5234 -4.7563,-0.6416 -7.1382,-0.3494 H 47.092 C 46.1077,13.4334 45.104,13.277 44.2092,12.8435 43.316,12.2407 42.6418,11.3652 42.2874,10.3476 L 42.1876,10.1354 C 41.4562,8.50159 40.4183,7.02314 39.1301,5.78016 38.9658,5.61812 38.7708,5.49051 38.5565,5.40479 38.3422,5.31908 38.113,5.27699 37.8822,5.28099 c -0.3094,-2e-5 -0.614,0.07719 -0.886,0.22462 -0.3173,0.14615 -0.5773,0.39299 -0.7398,0.70216 -0.1625,0.30917 -0.2183,0.66336 -0.1587,1.00751 0.2001,1.19528 0.2754,2.40815 0.2246,3.61902 -0.3856,3.3955 -1.225,6.7239 -2.4959,9.8961 0.0991,0.2742 0.0991,0.5744 0,0.8486 0,0.1123 -0.0749,0.2745 -0.0998,0.4742 z m -4.53,29.4013 c 2.0716,10.62 9.2971,19.967 17.5459,22.8747 1.8836,0.7645 3.9394,1.0034 5.9482,0.6913 2.0087,-0.312 3.8951,-1.1634 5.4579,-2.4634 3.3695,-2.9202 4.9044,-6.0525 4.5675,-9.3096 C 62.2419,58.8922 58.523,54.225 51.8591,49.5202 H 51.7967 C 49.5869,47.9908 47.2957,46.5828 44.933,45.3022 38.7913,41.805 34.2793,36.0237 32.3788,29.2164 c -0.3092,1.1512 -0.5057,2.3298 -0.5865,3.5191 -0.2209,2.3396 0.4524,4.676 1.8844,6.5392 0.1622,0.1872 0.3369,0.3619 0.5116,0.5491 0.5972,0.5612 1.0951,1.2194 1.4726,1.9468 0.3773,0.9559 0.5474,1.981 0.4992,3.0075 0,0.312 0,0.624 0,0.9235 0.1324,1.408 0.6998,2.7399 1.6233,3.811 0.9235,1.0711 2.1574,1.8283 3.5306,2.1666 0.331,0.0347 0.6346,0.1995 0.8441,0.4581 0.2094,0.2586 0.3076,0.5899 0.2728,0.9208 -0.0347,0.331 -0.1995,0.6346 -0.4581,0.8441 -0.2587,0.2094 -0.5899,0.3076 -0.9208,0.2728 -0.0911,0.013 -0.1835,0.013 -0.2746,0 -1.886,-0.4472 -3.5837,-1.4757 -4.8534,-2.9402 -1.2697,-1.4645 -2.0471,-3.2909 -2.2224,-5.2213 0,-0.366 0,-0.7279 0,-1.0857 0.0405,-0.6771 -0.0528,-1.3556 -0.2745,-1.9967 -0.2664,-0.465 -0.6032,-0.8859 -0.9984,-1.2479 -0.2121,-0.2121 -0.4118,-0.4243 -0.599,-0.6489 -1.7311,-2.1489 -2.6186,-4.8557 -2.4958,-7.6124 -1.2624,5.94 -1.3091,12.0741 -0.1373,18.0326 z m -4.8046,9.6341 c -0.4243,0 -0.861,0 -1.2479,0 -1.1606,0 -2.3586,0 -3.5441,-0.2122 -0.0302,-0.0077 -0.062,-0.0059 -0.0911,0.0053 -0.0291,0.0112 -0.054,0.0311 -0.0712,0.0571 -0.0177,0.028 -0.0271,0.0605 -0.0271,0.0936 0,0.0332 0.0094,0.0656 0.0271,0.0936 0.2621,0.5242 0.4992,1.0732 0.7488,1.6223 0.5959,1.7083 1.5683,3.2608 2.8453,4.5425 1.4476,1.2479 3.5691,1.7222 6.5267,1.5724 0.8111,0 1.6348,-0.1248 2.4958,-0.1996 0.8611,-0.0749 1.7347,-0.1623 2.6332,-0.1997 -1.1766,-1.4017 -2.2446,-2.8911 -3.1947,-4.4551 -0.1476,-0.0894 -0.2751,-0.2084 -0.3744,-0.3495 -1.1855,-1.5724 -3.3569,-2.396 -6.7264,-2.5333 z"
         fill="#000000"
         id="path1-3"
         style="fill:#a90636;fill-opacity:1" /></g></g></svg>
