<?xml version="1.0" encoding="UTF-8" standalone="no"?>
<!-- Created with Inkscape (http://www.inkscape.org/) -->

<svg
   width="16.929659mm"
   height="19.810951mm"
   viewBox="0 0 16.929659 19.810951"
   version="1.1"
   id="svg1"
   xml:space="preserve"
   inkscape:export-filename="bitmap.png"
   inkscape:export-xdpi="2.5656567"
   inkscape:export-ydpi="2.5656567"
   xmlns:inkscape="http://www.inkscape.org/namespaces/inkscape"
   xmlns:sodipodi="http://sodipodi.sourceforge.net/DTD/sodipodi-0.dtd"
   xmlns="http://www.w3.org/2000/svg"
   xmlns:svg="http://www.w3.org/2000/svg"><sodipodi:namedview
     id="namedview1"
     pagecolor="#ffffff"
     bordercolor="#000000"
     borderopacity="0.25"
     inkscape:showpageshadow="2"
     inkscape:pageopacity="0.0"
     inkscape:pagecheckerboard="0"
     inkscape:deskcolor="#d1d1d1"
     inkscape:document-units="mm" /><defs
     id="defs1" /><g
     inkscape:label="Layer 1"
     inkscape:groupmode="layer"
     id="layer1"
     transform="translate(-120.95011,-192.75976)"><g
       style="fill:#a90636;fill-opacity:1"
       id="g5"
       transform="matrix(0.26458333,0,0,0.26458333,118.67635,191.89604)"><path
         d="m 27.2464,78.1405 h 26.6808 c 1.4265,0 2.7945,-0.5667 3.8032,-1.5754 1.0087,-1.0087 1.5754,-2.3767 1.5754,-3.8032 v -9.9835 c 3.9302,-0.5673 7.7933,-1.5289 11.5309,-2.8702 0.5917,-0.2213 1.0863,-0.6443 1.3968,-1.1945 0.3104,-0.5501 0.4168,-1.1922 0.3004,-1.813 -0.1002,-0.6251 -0.4133,-1.1964 -0.8863,-1.6171 -0.473,-0.4207 -1.0769,-0.6651 -1.7094,-0.6916 -3.8707,-0.2649 -7.5736,-1.6818 -10.6324,-4.0683 -1.0036,-0.755 -2.2259,-1.1624 -3.4818,-1.1606 h -0.3119 v -8.411 c 1.3294,-0.2824 2.6352,-0.6662 3.906,-1.1481 0.4651,-0.1734 0.8546,-0.5044 1.1009,-0.9353 0.2463,-0.431 0.3336,-0.9346 0.2469,-1.4233 -0.0804,-0.498 -0.3306,-0.9528 -0.7082,-1.2872 -0.3776,-0.3344 -0.8594,-0.5278 -1.3634,-0.5473 -2.1401,-0.1444 -4.1974,-0.8834 -5.9402,-2.134 -0.9401,-0.653 -2.0504,-1.0173 -3.1947,-1.0482 v -6.7763 c 1.2751,-0.227 2.5278,-0.5652 3.7438,-1.0108 0.3964,-0.1595 0.7263,-0.4497 0.9349,-0.8226 0.2087,-0.3728 0.2835,-0.8058 0.2121,-1.227 -0.0714,-0.4212 -0.2848,-0.8054 -0.6047,-1.0886 -0.3198,-0.2832 -0.727,-0.4485 -1.1538,-0.4684 -1.5755,-0.1094 -3.073,-0.7268 -4.2679,-1.7596 L 41.8347,11.663 V 4.51239 c 0,-0.33097 -0.1315,-0.64839 -0.3655,-0.88242 -0.234,-0.23404 -0.5515,-0.36552 -0.8824,-0.36552 -0.331,0 -0.6484,0.13148 -0.8824,0.36552 C 39.4703,3.864 39.3388,4.18142 39.3388,4.51239 V 11.663 l -6.5516,7.6124 c -1.1949,1.0328 -2.6924,1.6502 -4.2679,1.7596 -0.4268,0.0199 -0.834,0.1852 -1.1538,0.4684 -0.3199,0.2832 -0.5333,0.6674 -0.6047,1.0886 -0.0714,0.4212 0.0034,0.8542 0.2121,1.227 0.2086,0.3729 0.5385,0.6631 0.9349,0.8226 1.216,0.4456 2.4687,0.7838 3.7438,1.0108 v 6.7763 c -1.1443,0.0309 -2.2546,0.3952 -3.1947,1.0482 -1.7428,1.2506 -3.8001,1.9896 -5.9402,2.134 -0.504,0.0195 -0.9858,0.2129 -1.3634,0.5473 -0.3776,0.3344 -0.6279,0.7892 -0.7082,1.2872 -0.0823,0.4981 0.0158,1.0092 0.2765,1.4415 0.2608,0.4324 0.6672,0.7575 1.1462,0.9171 1.2707,0.4819 2.5766,0.8657 3.906,1.1481 v 8.411 h -0.312 c -1.2559,-0.0018 -2.4781,0.4056 -3.4817,1.1606 -3.0786,2.3779 -6.7998,3.7777 -10.6823,4.0184 -0.6434,0.0123 -1.262,0.2502 -1.74787,0.6721 -0.48583,0.422 -0.808,1.0012 -0.91026,1.6365 -0.11642,0.6209 -0.01004,1.263 0.30042,1.8131 0.31047,0.5502 0.80509,0.9732 1.39681,1.1945 3.7375,1.3412 7.6006,2.3028 11.5309,2.8702 v 9.9835 c -0.0066,0.7105 0.1276,1.4153 0.395,2.0736 0.2673,0.6583 0.6625,1.2572 1.1626,1.7619 0.5001,0.5048 1.0952,0.9054 1.7511,1.1788 0.6558,0.2735 1.3593,0.4142 2.0699,0.4142 z m 0,-2.4959 c -0.7636,-0.0033 -1.4949,-0.308 -2.0348,-0.8479 -0.5399,-0.5399 -0.8447,-1.2713 -0.848,-2.0348 v -9.5966 c 2.629,0.3744 5.5034,0.6988 8.6233,0.9734 V 75.707 Z m 8.2738,0 V 64.2884 l 2.6456,0.1872 c 0.8111,0 1.6473,0.0749 2.4959,0.0749 0.8486,0 1.6472,0 2.4958,-0.0749 l 2.4959,-0.1747 -0.0749,11.3437 z m 21.2897,-2.8827 c -0.0033,0.7635 -0.308,1.4949 -0.8479,2.0348 -0.5399,0.5399 -1.2713,0.8446 -2.0348,0.8479 H 48.0744 V 64.0888 c 3.1822,-0.2746 6.1024,-0.5991 8.7355,-0.9859 z M 31.2273,23.0068 c 1.2569,-0.4505 2.414,-1.1414 3.4068,-2.0342 l 5.9527,-6.9385 5.9526,6.9385 0.0874,0.0874 c 0.9717,0.8584 2.0983,1.5234 3.3195,1.9592 -2.7945,0.564 -5.6266,0.9227 -8.4735,1.0733 -0.5901,0.0374 -1.182,0.0374 -1.7721,0 -2.8479,-0.1459 -5.6807,-0.5089 -8.4734,-1.0857 z m 15.7863,3.0574 v 6.352 h -5.1789 v -5.8528 c 1.9093,-0.1248 3.644,-0.2995 5.1789,-0.4992 z m -7.6748,0.4992 v 5.8528 h -5.1789 v -6.352 c 1.535,0.1997 3.2696,0.3744 5.1789,0.4992 z M 24.0891,37.957 c 2.0975,-0.3611 4.0858,-1.1931 5.8154,-2.4335 0.5674,-0.4055 1.2493,-0.6196 1.9467,-0.6114 h 17.4711 c 0.6847,-3e-4 1.3523,0.2135 1.9094,0.6114 1.7295,1.2404 3.7178,2.0724 5.8153,2.4335 -4.9332,1.2899 -9.9922,2.0389 -15.0875,2.2338 -0.9141,0.0624 -1.8314,0.0624 -2.7455,0 C 34.1055,40.0052 29.0331,39.2561 24.0891,37.957 Z m 28.8772,3.5067 v 7.8994 h -4.8919 v -7.2005 c 1.772,-0.2122 3.4068,-0.4368 4.8919,-0.6989 z m -7.4876,0.9484 v 6.951 h -9.9835 v -6.9634 c 1.1356,0.1123 2.2962,0.1996 3.5317,0.287 0.5116,0 1.0357,0 1.5474,0 0.5116,0 1.0358,0 1.5474,0 1.1981,-0.0749 2.3337,-0.1747 3.4568,-0.2746 z m -12.4794,-0.262 v 7.213 h -4.792 v -7.8994 c 1.4476,0.2621 3.0574,0.4867 4.8045,0.6864 z M 11.2479,57.5246 c -0.0624,0 -0.1748,0 -0.1498,-0.262 0.025,-0.2621 0.1747,-0.2247 0.2371,-0.2247 4.3932,-0.2664 8.6055,-1.8444 12.0925,-4.53 0.5684,-0.4264 1.2611,-0.6543 1.9717,-0.6489 h 30.3747 c 0.7106,-0.0054 1.4033,0.2225 1.9718,0.6489 3.4869,2.6856 7.6992,4.2636 12.0924,4.53 0.0624,0 0.1997,0 0.2372,0.2247 0.0374,0.2246 -0.0874,0.2495 -0.1498,0.262 -3.7438,1.4726 -11.481,3.4318 -27.0427,4.4551 -1.5292,0.0999 -3.0633,0.0999 -4.5924,0 C 22.7288,60.9564 15.0041,58.9972 11.2479,57.5246 Z"
         fill="#000000"
         id="path1-7"
         style="fill:#a90636;fill-opacity:1" /></g></g></svg>
