<?xml version="1.0" encoding="UTF-8" standalone="no"?>
<!-- Created with Inkscape (http://www.inkscape.org/) -->

<svg
   width="19.801771mm"
   height="15.662126mm"
   viewBox="0 0 19.801771 15.662126"
   version="1.1"
   id="svg1"
   xml:space="preserve"
   inkscape:export-filename="bitmap.png"
   inkscape:export-xdpi="2.5656567"
   inkscape:export-ydpi="2.5656567"
   xmlns:inkscape="http://www.inkscape.org/namespaces/inkscape"
   xmlns:sodipodi="http://sodipodi.sourceforge.net/DTD/sodipodi-0.dtd"
   xmlns="http://www.w3.org/2000/svg"
   xmlns:svg="http://www.w3.org/2000/svg"><sodipodi:namedview
     id="namedview1"
     pagecolor="#ffffff"
     bordercolor="#000000"
     borderopacity="0.25"
     inkscape:showpageshadow="2"
     inkscape:pageopacity="0.0"
     inkscape:pagecheckerboard="0"
     inkscape:deskcolor="#d1d1d1"
     inkscape:document-units="mm" /><defs
     id="defs1" /><g
     inkscape:label="Layer 1"
     inkscape:groupmode="layer"
     id="layer1"
     transform="translate(-84.615633,-97.045926)"><g
       style="fill:#a90636;fill-opacity:1"
       id="g3"
       transform="matrix(0.26458333,0,0,0.26458333,83.733942,94.106919)"><path
         d="m 5.3814,37.8946 22.5502,11.9927 -1.1357,4.9917 -10.9943,9.4469 c -0.4813,0.4178 -0.8266,0.9701 -0.9916,1.5858 -0.1649,0.6157 -0.1419,1.2666 0.0661,1.8692 0.208,0.6025 0.5914,1.129 1.1011,1.5118 0.5096,0.3828 1.1221,0.6045 1.7587,0.6364 l 8.1366,0.3744 h 0.1497 c 0.8452,-0.0033 1.6545,-0.3414 2.251,-0.9401 0.5964,-0.5988 0.9313,-1.4095 0.9313,-2.2547 v -3.7438 l 38.0744,-6.639 h 0.0624 0.1498 0.1248 0.0748 0.0624 l 0.0999,-0.0873 0.1123,-0.0999 0.0998,-0.1123 v -0.1123 c 0.0255,-0.0346 0.0464,-0.0724 0.0624,-0.1123 0,0 0,-0.0749 0,-0.1123 l 0.0874,-0.4118 c 0,0 0,-0.0874 0,-0.1248 l 1.485,-25.2332 4.0308,2.7454 c 0.4701,0.3235 1.0268,0.4975 1.5974,0.4992 0.4923,0.0044 0.9773,-0.1201 1.4065,-0.3613 0.4293,-0.2411 0.788,-0.5904 1.0404,-1.0132 0.2524,-0.4228 0.3897,-0.9042 0.3983,-1.3965 0.0086,-0.4923 -0.1118,-0.9783 -0.3493,-1.4096 l -5.5159,-9.9835 c -0.2161,-0.389 -0.5207,-0.7216 -0.8893,-0.971 -0.3686,-0.2493 -0.7907,-0.4083 -1.2322,-0.4641 -0.4437,-0.0487 -0.8927,0.0071 -1.311,0.1632 -0.4182,0.156 -0.7941,0.4078 -1.0975,0.7353 l -4.7422,5.1914 c -0.1216,0.1315 -0.2136,0.2875 -0.2695,0.4576 -0.056,0.1701 -0.0747,0.3503 -0.0549,0.5283 0,0 0,0 0,0.0874 L 59.7414,37.1583 45.3777,13.2479 C 45.3441,13.1992 45.3065,13.1533 45.2654,13.1107 V 13.0358 C 45.1639,12.9389 45.0507,12.855 44.9284,12.7862 H 44.8535 C 44.734,12.7355 44.608,12.7019 44.4792,12.6864 L 15.4647,11.114 c -0.7887,-0.0438 -1.5718,0.155 -2.2442,0.5695 -0.6724,0.4145 -1.2018,1.0249 -1.517,1.7492 -0.3152,0.7242 -0.4012,1.5276 -0.2464,2.3021 0.1548,0.7746 0.543,1.4832 1.1124,2.0306 L 22.216,27.0501 6.32983,30.719 c -0.76808,0.1796 -1.46321,0.589 -1.99277,1.1736 -0.52956,0.5846 -0.86842,1.3167 -0.97142,2.0987 -0.10301,0.7821 0.03472,1.5769 0.39484,2.2787 0.36012,0.7018 0.92554,1.2772 1.62092,1.6496 z m 21.2897,29.2141 c -0.0027,0.1914 -0.0786,0.3745 -0.2121,0.5117 -0.1397,0.1267 -0.3232,0.1938 -0.5117,0.1872 l -8.1365,-0.3744 c -0.1384,-0.005 -0.2721,-0.0518 -0.3835,-0.1342 -0.1114,-0.0824 -0.1952,-0.1966 -0.2404,-0.3275 -0.0454,-0.1325 -0.0506,-0.2754 -0.0151,-0.4108 0.0355,-0.1354 0.1102,-0.2573 0.2147,-0.3505 l 9.2846,-8.0367 z M 29.167,60.8691 V 56.7384 H 52.6157 Z M 69.625,20.5359 c 0.0335,-0.0387 0.0762,-0.0682 0.1243,-0.0857 0.0481,-0.0175 0.0998,-0.0224 0.1503,-0.0142 0.0503,0.0038 0.0987,0.0209 0.1403,0.0493 0.0416,0.0285 0.075,0.0675 0.0968,0.113 l 5.5159,9.9834 c 0.0398,0.0585 0.0555,0.13 0.0439,0.1997 -0.0117,0.0698 -0.0497,0.1323 -0.1063,0.1747 -0.0529,0.0482 -0.1219,0.075 -0.1935,0.075 -0.0715,0 -0.1405,-0.0268 -0.1934,-0.075 l -9.347,-6.3645 z M 61.4885,40.7025 64.8704,26.9752 67.3663,28.6724 65.9436,52.77 59.8912,47.1293 Z M 63.8721,54.255 H 29.5289 L 35.6064,27.8363 Z M 58.8803,40.5278 57.7447,45.1202 38.4392,27.0875 44.3544,16.3553 Z M 14.3041,15.9684 c -0.1926,-0.1866 -0.3251,-0.4263 -0.3807,-0.6886 -0.0556,-0.2624 -0.0316,-0.5353 0.0687,-0.7839 0.1083,-0.2607 0.2951,-0.4813 0.5343,-0.6311 0.2393,-0.1498 0.5192,-0.2215 0.801,-0.2051 l 26.9304,1.3478 -5.703,10.3329 -0.8736,-0.8236 -0.1497,-0.1123 c -0.1227,-0.0769 -0.2578,-0.1318 -0.3994,-0.1623 h -0.0624 c -0.1324,-0.0188 -0.2668,-0.0188 -0.3993,0 h -0.1497 l -9.4219,2.1589 z M 5.81818,34.3006 C 5.84696,34.0175 5.96539,33.7511 6.1562,33.5401 6.347,33.3291 6.60021,33.1845 6.87892,33.1275 L 33.1604,27.0875 28.5056,47.3664 6.55446,35.7107 C 6.29926,35.5827 6.09083,35.3776 5.95868,35.1245 5.82653,34.8714 5.77738,34.5832 5.81818,34.3006 Z"
         fill="#000000"
         id="path1-1"
         style="fill:#a90636;fill-opacity:1" /></g></g></svg>
