<?xml version="1.0" encoding="UTF-8" standalone="no"?>
<!-- Created with Inkscape (http://www.inkscape.org/) -->

<svg
   width="19.795715mm"
   height="19.208469mm"
   viewBox="0 0 19.795715 19.208469"
   version="1.1"
   id="svg1"
   xml:space="preserve"
   inkscape:export-filename="bitmap.png"
   inkscape:export-xdpi="2.5656567"
   inkscape:export-ydpi="2.5656567"
   xmlns:inkscape="http://www.inkscape.org/namespaces/inkscape"
   xmlns:sodipodi="http://sodipodi.sourceforge.net/DTD/sodipodi-0.dtd"
   xmlns="http://www.w3.org/2000/svg"
   xmlns:svg="http://www.w3.org/2000/svg"><sodipodi:namedview
     id="namedview1"
     pagecolor="#ffffff"
     bordercolor="#000000"
     borderopacity="0.25"
     inkscape:showpageshadow="2"
     inkscape:pageopacity="0.0"
     inkscape:pagecheckerboard="0"
     inkscape:deskcolor="#d1d1d1"
     inkscape:document-units="mm" /><defs
     id="defs1" /><g
     inkscape:label="Layer 1"
     inkscape:groupmode="layer"
     id="layer1"
     transform="translate(-118.79003,-108.72319)"><g
       style="fill:none"
       id="g2"
       transform="matrix(0.26458333,0,0,0.26458333,118.12286,107.54191)"><path
         d="m 10.4827,44.296 c 3.5775,1.8825 7.5769,2.819 11.6182,2.7205 2.8152,-0.015 5.6197,-0.3456 8.3612,-0.9858 -4.0808,1.0358 -11.8429,3.7438 -16.2232,9.9834 -2.7205,3.8562 -2.8952,9.0226 -2.5832,12.6791 0.0538,0.5205 0.2161,1.024 0.4764,1.4779 0.2604,0.454 0.613,0.8483 1.0351,1.1576 0.4222,0.3092 0.9045,0.5265 1.4158,0.6379 0.5113,0.1114 1.0403,0.1143 1.5528,0.0086 l 0.3619,-0.0749 c 0.1852,-0.0418 0.3774,-0.0408 0.5621,0.0029 0.1848,0.0437 0.3571,0.1289 0.5039,0.2493 0.1468,0.1203 0.2643,0.2726 0.3433,0.4451 0.0791,0.1726 0.1178,0.3609 0.1132,0.5507 -0.0169,0.5464 0.0861,1.0898 0.3017,1.5921 0.2156,0.5024 0.5385,0.9514 0.9462,1.3156 0.6797,0.6302 1.569,0.986 2.4959,0.9983 0.1578,0.0124 0.3164,0.0124 0.4742,0 3.5816,-0.4368 8.5109,-1.6847 11.7056,-5.0666 3.7438,-3.956 5.2912,-9.2098 5.9776,-13.4278 0.6864,4.218 2.2837,9.4718 5.9901,13.4278 3.1822,3.3944 8.124,4.6298 11.6931,5.0666 0.1579,0.0124 0.3164,0.0124 0.4742,0 0.993,0 1.9452,-0.3944 2.6473,-1.0965 0.7021,-0.7021 1.0966,-1.6544 1.0966,-2.6473 v -0.0873 c -0.0094,-0.1907 0.0251,-0.381 0.1008,-0.5562 0.0757,-0.1753 0.1907,-0.3308 0.3359,-0.4547 0.1411,-0.1286 0.3115,-0.2209 0.4964,-0.2687 0.1848,-0.0478 0.3786,-0.0498 0.5644,-0.0058 h 0.3619 c 0.5162,0.1077 1.0494,0.1051 1.5646,-0.0075 0.5152,-0.1127 1.0008,-0.333 1.4249,-0.6464 0.4241,-0.3134 0.7773,-0.7128 1.0363,-1.1722 0.259,-0.4594 0.4181,-0.9683 0.4667,-1.4934 0.3245,-3.644 0.1373,-8.8104 -2.5832,-12.6915 -4.4426,-6.3021 -12.4045,-8.9851 -16.4103,-9.9835 2.8011,0.6658 5.6692,1.0091 8.5483,1.0233 4.0414,0.0984 8.0408,-0.838 11.6183,-2.7205 4.0683,-2.2712 6.4518,-6.7638 7.7372,-10.1332 0.1992,-0.5116 0.2834,-1.0607 0.2468,-1.6085 -0.0367,-0.5478 -0.1934,-1.0808 -0.459,-1.5612 -0.2569,-0.4732 -0.6129,-0.8853 -1.0436,-1.2084 -0.4307,-0.323 -0.9261,-0.5493 -1.4522,-0.6635 -0.191,-0.034 -0.3713,-0.1121 -0.5268,-0.2279 -0.1555,-0.1159 -0.2819,-0.2663 -0.3691,-0.4395 -0.0872,-0.1733 -0.1329,-0.3644 -0.1333,-0.5583 -5e-4,-0.1939 0.0443,-0.3853 0.1306,-0.5589 l 0.1498,-0.2371 c 0.2127,-0.486 0.3225,-1.0107 0.3225,-1.5412 0,-0.5305 -0.1098,-1.0552 -0.3225,-1.5412 -0.205,-0.4813 -0.5085,-0.9144 -0.8911,-1.2712 -0.3826,-0.3568 -0.8358,-0.6294 -1.3302,-0.8004 -3.4693,-1.1855 -8.5234,-2.2462 -12.9286,-0.5366 -2.7727,1.1444 -5.2824,2.843 -7.3753,4.9918 1.1799,-2.9469 1.7078,-6.1144 1.5474,-9.2847 C 52.3259,12.3614 49.206,8.23076 46.6478,5.59762 46.2802,5.21989 45.8371,4.92401 45.3473,4.72936 44.8575,4.53471 44.3322,4.44566 43.8056,4.46804 43.279,4.49042 42.7631,4.62373 42.2916,4.85924 41.8201,5.09476 41.4037,5.42717 41.0695,5.83473 L 40.8324,6.10927 C 40.7123,6.25739 40.5599,6.37602 40.3868,6.45607 40.2138,6.53611 40.0247,6.57543 39.8341,6.57101 39.6414,6.56763 39.4521,6.51968 39.2811,6.43091 39.11,6.34214 38.9619,6.21497 38.8482,6.05935 38.5221,5.61818 38.1031,5.25405 37.6207,4.99274 37.1384,4.73143 36.6045,4.57932 36.0568,4.54717 35.5092,4.51503 34.9611,4.60363 34.4515,4.80672 c -0.5096,0.20309 -0.9684,0.51569 -1.3438,0.91569 -2.4959,2.5957 -5.5408,6.67649 -5.8653,11.31879 -0.1787,3.1553 0.3191,6.3124 1.4601,9.2596 -2.0971,-2.161 -4.6218,-3.861 -7.4127,-4.9917 -4.4052,-1.7097 -9.4594,-0.6489 -12.92863,0.5366 -0.47723,0.1841 -0.91168,0.4639 -1.27656,0.8224 -0.36487,0.3584 -0.65243,0.7878 -0.84493,1.2617 -0.22039,0.4905 -0.33434,1.0221 -0.33434,1.5599 0,0.5377 0.11395,1.0694 0.33434,1.5599 l 0.16223,0.3369 c 0.08639,0.1737 0.13113,0.365 0.13067,0.5589 -4.6e-4,0.1939 -0.0461,0.3851 -0.13331,0.5583 -0.08721,0.1732 -0.21358,0.3237 -0.36908,0.4395 -0.15551,0.1159 -0.33588,0.1939 -0.52679,0.2279 -0.52616,0.1142 -1.02149,0.3405 -1.45221,0.6636 -0.43073,0.323 -0.78671,0.7352 -1.04366,1.2083 -0.26628,0.4703 -0.42758,0.9927 -0.47282,1.5312 -0.04523,0.5385 0.02666,1.0805 0.21076,1.5886 1.28537,3.3694 3.66892,7.862 7.73723,10.1332 z m 21.6516,26.0195 c -2.8203,2.995 -7.5999,3.9809 -10.1956,4.3053 -0.1849,0.0239 -0.3728,0.006 -0.5499,-0.0523 -0.1771,-0.0583 -0.3389,-0.1556 -0.4734,-0.2846 -0.1374,-0.1236 -0.2456,-0.2761 -0.3168,-0.4466 -0.0712,-0.1705 -0.1037,-0.3547 -0.095,-0.5393 0.0229,-0.5677 -0.0837,-1.1332 -0.3117,-1.6536 -0.228,-0.5204 -0.5715,-0.9821 -1.0044,-1.3501 -0.4329,-0.3679 -0.9439,-0.6325 -1.4943,-0.7738 -0.5503,-0.1412 -1.1256,-0.1552 -1.6822,-0.0411 h -0.3619 c -0.1747,0.037 -0.3554,0.0362 -0.5298,-0.0026 -0.1744,-0.0387 -0.3384,-0.1145 -0.481,-0.2221 -0.137,-0.1042 -0.2509,-0.2355 -0.3347,-0.3859 -0.0838,-0.1503 -0.1355,-0.3163 -0.152,-0.4876 -0.2371,-2.6457 -0.2746,-7.6124 2.1339,-11.0193 4.9044,-6.9759 15.0751,-9.0849 16.8846,-9.4094 0.3471,0.478 0.74,0.9211 1.173,1.3228 l -5.7155,6.4768 c -1.1031,-0.5772 -2.379,-0.7313 -3.5878,-0.4334 -1.2088,0.298 -2.2669,1.0274 -2.9754,2.0511 -0.7085,1.0237 -1.0184,2.271 -0.8714,3.5073 0.147,1.2362 0.7407,2.3761 1.6695,3.2051 0.9287,0.829 2.1284,1.29 3.3734,1.2963 1.2449,0.0062 2.4492,-0.4428 3.3861,-1.2626 0.937,-0.8197 1.5421,-1.9536 1.7014,-3.1883 0.1593,-1.2347 -0.1381,-2.4851 -0.8364,-3.5158 l 5.9527,-6.6515 c 0.4864,0.2232 0.9918,0.4028 1.51,0.5367 -0.013,0.0994 -0.013,0.2 0,0.2995 -0.0375,0.0748 0.5865,11.8928 -5.8154,18.719 z M 31.1235,45.8684 c 0.4617,-0.1123 0.7612,-0.1996 0.8735,-0.2371 z m -2.8952,16.1233 c -0.3409,0.3846 -0.7882,0.6594 -1.2853,0.7895 -0.4972,0.1301 -1.0217,0.1097 -1.5073,-0.0585 -0.4855,-0.1683 -0.9102,-0.4769 -1.2202,-0.8868 -0.31,-0.4098 -0.4914,-0.9025 -0.5211,-1.4155 -0.0298,-0.513 0.0934,-1.0233 0.3539,-1.4662 0.2605,-0.443 0.6467,-0.7986 1.1095,-1.0219 0.4628,-0.2233 0.9815,-0.3042 1.4903,-0.2325 0.5089,0.0718 0.985,0.2929 1.368,0.6355 0.5116,0.4576 0.8212,1.0992 0.861,1.7844 0.0397,0.6853 -0.1936,1.3584 -0.6488,1.872 z m 5.8902,-18.7938 c -0.0024,-1.1537 0.3376,-2.2822 0.977,-3.2425 0.6394,-0.9603 1.5495,-1.7092 2.6149,-2.1518 1.0654,-0.4427 2.2382,-0.5592 3.3699,-0.3347 1.1316,0.2245 2.1712,0.7798 2.987,1.5956 0.8158,0.8158 1.3711,1.8553 1.5955,2.987 0.2245,1.1317 0.108,2.3045 -0.3346,3.3699 -0.4426,1.0654 -1.1915,1.9754 -2.1518,2.6149 -0.9603,0.6394 -2.0888,0.9794 -3.2425,0.9769 -1.5425,-0.0066 -3.0197,-0.6231 -4.1092,-1.7149 -1.0896,-1.0919 -1.7029,-2.5704 -1.7062,-4.1129 z m 3.2322,-21.5144 c -0.0025,-0.5144 0.1479,-1.018 0.4322,-1.4468 0.2843,-0.4288 0.6896,-0.7634 1.1644,-0.9614 0.4748,-0.198 0.9977,-0.2505 1.5024,-0.1507 0.5047,0.0998 0.9683,0.3472 1.3321,0.711 0.3637,0.3638 0.6112,0.8274 0.711,1.3321 0.0997,0.5047 0.0473,1.0276 -0.1507,1.5024 -0.198,0.4748 -0.5327,0.8801 -0.9614,1.1644 -0.4288,0.2842 -0.9324,0.4347 -1.4468,0.4322 -0.6863,-0.0033 -1.3433,-0.2782 -1.8274,-0.7647 -0.4841,-0.4864 -0.7558,-1.1447 -0.7558,-1.831 z m 26.2939,35.7159 c 2.3961,3.4318 2.3586,8.3861 2.134,11.0442 -0.0182,0.1691 -0.0707,0.3327 -0.1544,0.4808 -0.0837,0.1481 -0.1968,0.2775 -0.3323,0.3802 -0.1459,0.1059 -0.3121,0.1804 -0.4882,0.2191 -0.1761,0.0386 -0.3583,0.0405 -0.5351,0.0056 l -0.4118,-0.0499 c -0.5642,-0.1164 -1.1476,-0.1011 -1.7048,0.0449 -0.5573,0.1459 -1.0733,0.4184 -1.5081,0.7964 -0.4347,0.3779 -0.7763,0.8511 -0.9983,1.3827 -0.2219,0.5315 -0.3182,1.1071 -0.2814,1.682 0,0.1802 -0.039,0.3584 -0.1144,0.5221 -0.0754,0.1637 -0.1854,0.3092 -0.3224,0.4263 -0.1339,0.1212 -0.2925,0.2118 -0.4649,0.2656 -0.1723,0.0539 -0.3543,0.0697 -0.5334,0.0464 -2.5957,-0.3245 -7.3753,-1.2479 -10.1831,-4.3054 -6.3895,-6.8012 -5.7905,-18.6316 -5.7905,-18.719 0.0121,-0.0995 0.0121,-0.2 0,-0.2995 0.4716,-0.1086 0.9314,-0.2633 1.3728,-0.4617 l 5.8902,6.614 c -0.5082,0.741 -0.8103,1.6039 -0.8751,2.5001 -0.0649,0.8962 0.1098,1.7935 0.506,2.6 0.3963,0.8065 0.9999,1.493 1.7489,1.9893 0.7491,0.4963 1.6166,0.7845 2.5138,0.835 h 0.312 c 1.2391,0.0167 2.4401,-0.4281 3.3694,-1.2479 0.7848,-0.6655 1.3497,-1.5531 1.62,-2.546 0.2703,-0.9928 0.2335,-2.0443 -0.1056,-3.0158 -0.3392,-0.9715 -0.9647,-1.8174 -1.7942,-2.4263 -0.8295,-0.6089 -1.8241,-0.9522 -2.8525,-0.9846 -0.9089,-0.0433 -1.8131,0.1547 -2.6207,0.5741 l -5.6157,-6.3146 c 0.4694,-0.4292 0.8881,-0.9107 1.2479,-1.4351 1.3228,0.2621 11.9053,2.2837 16.9719,9.397 z m -11.9427,0.9234 c 0.4731,-0.4249 1.0863,-0.6604 1.7222,-0.6614 h 0.1497 c 0.4168,0.0392 0.8178,0.179 1.1685,0.4075 0.3507,0.2285 0.6406,0.5388 0.8448,0.9042 0.2043,0.3654 0.3166,0.7749 0.3274,1.1934 0.0109,0.4184 -0.0801,0.8332 -0.2652,1.2087 -0.185,0.3755 -0.4585,0.7003 -0.7969,0.9467 -0.3385,0.2463 -0.7317,0.4067 -1.1458,0.4674 -0.4142,0.0606 -0.8369,0.0197 -1.2318,-0.1192 -0.3948,-0.1389 -0.75,-0.3717 -1.035,-0.6784 -0.2273,-0.2546 -0.4022,-0.5516 -0.5146,-0.8739 -0.1124,-0.3224 -0.1601,-0.6637 -0.1404,-1.0045 0.0197,-0.3408 0.1065,-0.6744 0.2553,-0.9816 0.1488,-0.3073 0.3567,-0.5821 0.6119,-0.8089 z M 47.9581,45.6937 c 0.1622,0 0.5616,0.1623 1.1731,0.312 z M 59.514,23.6427 c 3.8935,-1.51 8.7355,-0.287 11.2314,0.5741 0.1613,0.0585 0.3089,0.1496 0.4334,0.2677 0.1246,0.1181 0.2234,0.2606 0.2904,0.4187 0.076,0.1642 0.1154,0.3431 0.1154,0.5241 0,0.181 -0.0394,0.3598 -0.1154,0.5241 l -0.1623,0.3245 c -0.2469,0.5155 -0.3724,1.0808 -0.367,1.6524 0.0054,0.5716 0.1416,1.1344 0.3982,1.6452 0.2566,0.5108 0.6268,0.9561 1.0821,1.3016 0.4554,0.3456 0.9838,0.5823 1.5448,0.692 0.1784,0.0359 0.3468,0.1103 0.4934,0.2181 0.1466,0.1078 0.2678,0.2463 0.3552,0.4059 0.0918,0.162 0.1461,0.3424 0.1591,0.5281 0.0129,0.1857 -0.0158,0.372 -0.0842,0.5451 -0.9359,2.4959 -3.0325,6.8512 -6.6265,8.8603 -8.2364,4.5675 -19.5926,1.1481 -19.6924,1.1481 -0.0995,-0.012 -0.2,-0.012 -0.2995,0 3e-4,-0.4179 -0.0331,-0.8353 -0.0998,-1.2479 l 8.1614,-3.619 c 0.4747,0.6098 1.0823,1.1032 1.7765,1.4428 0.6941,0.3395 1.4566,0.5161 2.2294,0.5165 0.7133,-0.0133 1.4154,-0.1792 2.0591,-0.4867 0.8709,-0.3825 1.6169,-1.0019 2.1531,-1.7877 0.5361,-0.7857 0.8408,-1.7062 0.8794,-2.6566 0.0386,-0.9505 -0.1905,-1.8926 -0.6611,-2.7192 -0.4707,-0.8267 -1.164,-1.5045 -2.0011,-1.9563 -0.837,-0.4519 -1.7841,-0.6596 -2.7334,-0.5996 -0.9494,0.0601 -1.8627,0.3856 -2.6361,0.9393 -0.7735,0.5538 -1.3758,1.3136 -1.7385,2.193 -0.3627,0.8793 -0.4712,1.8429 -0.3131,2.7809 l -7.9244,3.4567 c -0.3113,-0.6436 -0.7057,-1.2435 -1.1731,-1.7845 0.7738,-1.6598 5.2538,-11.0193 13.1907,-14.1017 z m -0.1623,9.2223 c 0.3305,-0.1457 0.6872,-0.2221 1.0483,-0.2247 0.6045,-0.0119 1.1941,0.1876 1.6672,0.564 0.4731,0.3764 0.8,0.9061 0.9242,1.4978 0.1243,0.5916 0.0381,1.2081 -0.2436,1.743 -0.2818,0.5349 -0.7413,0.9547 -1.2995,1.187 -0.3143,0.1581 -0.6574,0.2507 -1.0085,0.2722 -0.3512,0.0215 -0.703,-0.0287 -1.0342,-0.1473 -0.3311,-0.1187 -0.6347,-0.3035 -0.8923,-0.5431 -0.2575,-0.2396 -0.4637,-0.5291 -0.6059,-0.8509 -0.1423,-0.3217 -0.2177,-0.669 -0.2216,-1.0208 -0.0039,-0.3518 0.0638,-0.7007 0.1989,-1.0255 0.1351,-0.3248 0.3348,-0.6188 0.587,-0.8641 0.2522,-0.2452 0.5516,-0.4367 0.88,-0.5627 z M 29.7258,17.1909 c 0.287,-4.1057 3.3694,-7.87444 5.1789,-9.7713 0.1332,-0.12729 0.2929,-0.22352 0.4677,-0.28177 0.1747,-0.05826 0.3602,-0.0771 0.5431,-0.05517 0.1831,0.00934 0.3619,0.05892 0.5237,0.14519 0.1618,0.08628 0.3025,0.20714 0.4123,0.35398 0.3398,0.45729 0.7794,0.831 1.2855,1.09267 0.506,0.26168 1.0651,0.40441 1.6347,0.41733 0.5687,0.01285 1.1329,-0.1041 1.6497,-0.34196 0.5169,-0.23786 0.9727,-0.59037 1.3328,-1.03076 l 0.2371,-0.27455 c 0.1135,-0.13996 0.2559,-0.2537 0.4174,-0.33341 0.1616,-0.0797 0.3385,-0.12348 0.5186,-0.12833 0.1725,-0.00773 0.3448,0.02044 0.5059,0.08273 0.1611,0.0623 0.3076,0.15736 0.43,0.27918 1.847,1.90933 4.9918,5.72797 5.3038,9.89607 0.6489,9.2847 -7.2256,18.0452 -7.3504,18.1949 -0.5243,-0.1981 -1.0681,-0.3403 -1.6223,-0.4243 v -8.4235 c 1.2036,-0.3043 2.2546,-1.0379 2.9552,-2.0627 0.7007,-1.0249 1.0028,-2.2704 0.8495,-3.5024 -0.1534,-1.232 -0.7515,-2.3655 -1.682,-3.1873 -0.9305,-0.8219 -2.1292,-1.2755 -3.3706,-1.2755 -1.2415,0 -2.4402,0.4536 -3.3707,1.2755 -0.9305,0.8218 -1.5286,1.9553 -1.6819,3.1873 -0.1533,1.232 0.1487,2.4775 0.8494,3.5024 0.7007,1.0248 1.7516,1.7584 2.9552,2.0627 v 8.3736 c -0.5542,0.0839 -1.098,0.2262 -1.6223,0.4243 C 36.9513,35.236 29.0769,26.4756 29.7258,17.1909 Z M 5.15398,32.1661 C 5.24269,32.0051 5.36587,31.8657 5.51473,31.7578 5.66358,31.65 5.83443,31.5763 6.01505,31.5422 6.57496,31.4309 7.102,31.193 7.55588,30.8468 8.00975,30.5005 8.37843,30.0551 8.63373,29.5445 8.88903,29.0339 9.02418,28.4717 9.02885,27.9008 9.03352,27.33 8.90758,26.7656 8.66067,26.2509 L 8.49844,25.914 C 8.42428,25.7514 8.3859,25.5748 8.3859,25.3961 c 0,-0.1787 0.03838,-0.3553 0.11254,-0.5179 0.06696,-0.158 0.1658,-0.3006 0.29034,-0.4186 0.12454,-0.1181 0.2721,-0.2093 0.43346,-0.2678 2.49586,-0.861 7.32536,-2.084 11.23136,-0.574 7.9619,3.0949 12.4794,12.4793 13.1907,14.1516 -0.498,0.5606 -0.9177,1.1861 -1.2479,1.8594 l -8.0617,-3.5566 c 0.1673,-0.8961 0.0808,-1.8211 -0.2496,-2.6706 -0.3018,-0.778 -0.7906,-1.4697 -1.4233,-2.0139 -0.6327,-0.5441 -1.3897,-0.924 -2.2041,-1.1061 -0.8144,-0.182 -1.6611,-0.1606 -2.4653,0.0625 -0.8041,0.223 -1.5409,0.6407 -2.1452,1.2162 -0.6044,0.5755 -1.0576,1.291 -1.3196,2.0833 -0.262,0.7923 -0.3248,1.637 -0.1828,2.4593 0.1421,0.8223 0.4845,1.597 0.9972,2.2555 0.5126,0.6585 1.1795,1.1805 1.9419,1.52 0.6475,0.2903 1.3495,0.4392 2.0591,0.4367 0.6393,0.0028 1.2737,-0.1114 1.8719,-0.3369 0.8505,-0.3341 1.5929,-0.8953 2.1464,-1.6223 l 8.3861,3.7438 c -0.0543,0.372 -0.0835,0.7472 -0.0873,1.1231 -0.1074,-0.0186 -0.2171,-0.0186 -0.3245,0 -0.1123,0 -11.456,3.4568 -19.5925,-1.1106 C 8.11158,40.1155 6.01505,35.7103 5.0791,33.2893 5.00679,33.1127 4.97594,32.9219 4.98892,32.7315 5.0019,32.5411 5.05837,32.3562 5.15398,32.1911 Z m 16.56012,4.1182 c -0.2846,0.6219 -0.799,1.1094 -1.4352,1.3603 -0.4774,0.1885 -1.0002,0.2304 -1.5016,0.1206 -0.5014,-0.1099 -0.9587,-0.3667 -1.3136,-0.7376 -0.3548,-0.371 -0.5911,-0.8392 -0.6787,-1.345 -0.0876,-0.5058 -0.0225,-1.0262 0.1869,-1.4948 0.2054,-0.4697 0.5459,-0.8677 0.9782,-1.1432 0.4323,-0.2756 0.9368,-0.4163 1.4493,-0.4043 0.5125,0.0121 1.0098,0.1763 1.4287,0.4719 0.4188,0.2956 0.7403,0.7091 0.9234,1.1879 0.2495,0.6405 0.236,1.3536 -0.0374,1.9842 z"
         fill="#000000"
         id="path1-6"
         style="fill:#a90636;fill-opacity:1" /></g></g></svg>
