<?xml version="1.0" encoding="UTF-8" standalone="no"?>
<!-- Created with Inkscape (http://www.inkscape.org/) -->

<svg
   width="17.254082mm"
   height="19.82056mm"
   viewBox="0 0 17.254082 19.82056"
   version="1.1"
   id="svg1"
   xml:space="preserve"
   inkscape:export-filename="bitmap.png"
   inkscape:export-xdpi="2.5656567"
   inkscape:export-ydpi="2.5656567"
   xmlns:inkscape="http://www.inkscape.org/namespaces/inkscape"
   xmlns:sodipodi="http://sodipodi.sourceforge.net/DTD/sodipodi-0.dtd"
   xmlns="http://www.w3.org/2000/svg"
   xmlns:svg="http://www.w3.org/2000/svg"><sodipodi:namedview
     id="namedview1"
     pagecolor="#ffffff"
     bordercolor="#000000"
     borderopacity="0.25"
     inkscape:showpageshadow="2"
     inkscape:pageopacity="0.0"
     inkscape:pagecheckerboard="0"
     inkscape:deskcolor="#d1d1d1"
     inkscape:document-units="mm" /><defs
     id="defs1" /><g
     inkscape:label="Layer 1"
     inkscape:groupmode="layer"
     id="layer1"
     transform="translate(-96.431712,-138.58972)"><g
       style="fill:#a90636;fill-opacity:1"
       id="g1"
       transform="matrix(0.26458333,0,0,0.26458333,94.317262,137.70701)"
       inkscape:export-filename="g1.png"
       inkscape:export-xdpi="89.704834"
       inkscape:export-ydpi="89.704834"><path
         d="m 51.8182,67.5201 c 4.386,-1.4854 8.2943,-4.1182 11.3187,-7.6249 0.2152,-0.2515 0.5214,-0.4073 0.8514,-0.433 0.33,-0.0258 0.6567,0.0806 0.9082,0.2957 0.2516,0.2152 0.4073,0.5214 0.4331,0.8514 0.0257,0.33 -0.0807,0.6567 -0.2958,0.9082 -3.3357,3.8546 -7.6457,6.7423 -12.4793,8.3612 -0.1322,0.0231 -0.2673,0.0231 -0.3994,0 -0.2721,0.0142 -0.5414,-0.0611 -0.7667,-0.2143 -0.2254,-0.1532 -0.3944,-0.376 -0.4812,-0.6343 -0.0792,-0.321 -0.0277,-0.6604 0.1431,-0.9435 0.1708,-0.2831 0.447,-0.4869 0.7679,-0.5665 z M 20.8569,32.4282 c -0.1345,-0.7293 -0.2138,-1.4676 -0.2371,-2.2088 -0.2124,-2.1157 0.0696,-4.2517 0.8237,-6.2397 1.174,-2.1465 2.971,-3.8869 5.1539,-4.9918 1.7974,-1.065 3.6559,-2.0234 5.5658,-2.8702 -0.9597,-0.2083 -1.8993,-0.5006 -2.8078,-0.8736 -2.8703,-1.1481 -4.5675,-3.0824 -4.6673,-5.27871 7e-4,-0.88373 0.2156,-1.75411 0.6264,-2.53655 0.4108,-0.78245 1.0052,-1.45363 1.7322,-1.95602 4.9917,-3.7438 12.4793,-1.63479 16.1358,-0.63644 1.3873,0.31297 2.6956,0.90764 3.8436,1.7471 0.6697,0.51047 1.1994,1.18207 1.5398,1.95229 0.3404,0.77023 0.4804,1.61403 0.407,2.45293 -0.2187,1.2075 -0.8878,2.2869 -1.8719,3.02 3.3624,0.7643 6.4966,2.3122 9.1473,4.5175 2.6831,2.2588 3.9685,4.8794 3.6315,7.3628 -0.4185,2.1137 -1.651,3.9783 -3.4318,5.1914 -0.9508,0.72 -1.9659,1.3508 -3.0325,1.8844 1.6249,0.6895 3.0748,1.7342 4.243,3.0574 1.5851,1.8193 2.435,4.1642 2.3836,6.5767 l 0.287,0.0998 c 5.2164,1.9093 11.3811,6.327 12.704,13.0534 0.3663,2.488 0.1415,5.0273 -0.6564,7.4122 -0.7979,2.3849 -2.1463,4.5484 -3.936,6.315 -3.5078,3.4056 -7.9229,5.7279 -12.7165,6.689 -4.5997,0.909 -9.2757,1.377 -13.9644,1.3977 -5.5782,0.2121 -11.1191,0.4118 -16.6848,0.599 -0.961,0 -1.9593,0.0748 -2.9826,0.0748 -2.406,0.0704 -4.8056,-0.2844 -7.0883,-1.0482 -3.2072,-1.248 -6.5017,-4.1931 -6.6265,-8.1989 -0.03447,-2.0687 0.61475,-4.091 1.8469,-5.753 l 1.9718,-2.3711 1.4476,-1.6348 C 11.148,58.6847 9.15132,57.6739 8.40256,55.9393 c -1.51,-3.619 1.43513,-7.9993 4.06824,-11.8679 1.5475,-2.2837 3.1573,-4.6423 3.2197,-6.04 0.1123,-2.5707 1.9842,-4.5674 5.1664,-5.6032 z m 30.824,19.318 c -6.6265,3.1573 -14.1391,6.7389 -22.1134,7.2879 -3.1846,0.4871 -6.4,0.7457 -9.6215,0.7738 -1.1107,0 -2.2463,0 -3.332,-0.1498 l -2.4959,2.8328 -1.8719,2.2588 c -0.9029,1.1945 -1.4012,2.6459 -1.4226,4.1431 0.0998,2.8328 2.6705,4.9918 4.9917,5.9277 2.8453,1.0607 6.0275,0.936 9.1099,0.8236 5.5575,-0.183 11.1066,-0.3827 16.6474,-0.599 4.5413,-0.0171 9.0707,-0.4642 13.5277,-1.3353 4.3249,-0.8569 8.3136,-2.9357 11.4934,-5.99 1.5112,-1.4813 2.6548,-3.2955 3.3395,-5.2977 0.6848,-2.0022 0.8916,-4.1368 0.604,-6.2332 C 69.464,50.5482 64.1478,46.7545 59.493,45.0698 v 0.0998 c -1.3603,3.2696 -4.6049,5.0417 -7.8121,6.5766 z m -13.1532,-37.75 c 0.9343,-0.2015 1.8805,-0.3433 2.8328,-0.4243 0.574,-0.1248 1.1606,-0.2621 1.7346,-0.4368 0.8095,-0.1971 1.581,-0.5259 2.2837,-0.9734 0.2669,-0.1717 0.497,-0.3947 0.6769,-0.656 0.18,-0.2614 0.3062,-0.5559 0.3714,-0.8664 C 46.4423,10.2308 46.3569,9.82489 46.1785,9.45715 46,9.08942 45.734,8.77113 45.4038,8.53026 44.5137,7.92468 43.5129,7.50061 42.4587,7.28233 39.7865,6.44937 37.0184,5.96286 34.2223,5.83472 32.1833,5.73675 30.1679,6.30631 28.4818,7.45704 28.085,7.72087 27.7554,8.07378 27.5192,8.48762 c -0.2361,0.41384 -0.3723,0.87716 -0.3976,1.35297 0.0748,1.73461 2.3835,2.79541 3.0948,3.08241 2.6485,1.0023 5.4951,1.3698 8.3113,1.0732 z M 23.1157,30.132 c 0,1.4102 0.2371,3.332 1.3353,3.8686 0.6121,0.1951 1.2594,0.2547 1.8969,0.1747 l 9.9834,-0.4243 c 3.3056,-0.0554 6.6018,-0.3684 9.8587,-0.9359 3.1662,-0.5421 6.1595,-1.8249 8.7355,-3.7438 1.2565,-0.8281 2.1493,-2.1048 2.4959,-3.5691 0.2995,-2.2588 -1.8345,-4.3304 -2.7704,-5.129 -3.4401,-2.8663 -7.7771,-4.4341 -12.2547,-4.4302 h -0.624 c -0.9609,0.1872 -1.9218,0.3369 -2.8578,0.4243 -3.8631,0.9929 -7.5562,2.5577 -10.9568,4.6423 -1.7405,0.8561 -3.1902,2.206 -4.1681,3.8811 -0.6182,1.6736 -0.8486,3.4657 -0.6739,5.2413 z m -4.9917,8.0117 c -0.0999,2.109 -1.7471,4.53 -3.6565,7.3379 -2.2712,3.332 -4.84196,7.1132 -3.8311,9.4718 1.2479,2.8827 11.6182,2.6706 18.5942,1.5974 7.6124,-0.5242 14.8878,-3.9934 21.3022,-7.0509 2.8827,-1.3852 5.5533,-2.8203 6.5392,-5.2538 0.1219,-0.3236 0.2138,-0.6578 0.2745,-0.9983 0.1431,-0.9974 0.0653,-2.014 -0.228,-2.9779 -0.2933,-0.964 -0.7948,-1.8517 -1.4692,-2.6004 -1.5612,-1.683 -3.6216,-2.8203 -5.8777,-3.2446 -1.0423,0.3448 -2.1051,0.624 -3.1823,0.8361 -3.3805,0.5916 -6.8017,0.9212 -10.233,0.9859 l -9.9835,0.4243 h -0.7612 c -0.7803,0.0262 -1.5564,-0.1231 -2.2713,-0.4368 -0.6725,-0.3332 -1.2387,-0.8475 -1.6348,-1.485 -1.5349,0.4991 -3.4318,1.4725 -3.5191,3.3943 z m -0.3245,15.1125 c 1.8638,0.7348 3.8494,1.1116 5.8528,1.1107 1.5462,-0.0017 3.0843,-0.2244 4.5675,-0.6614 0.3177,-0.096 0.5843,-0.3143 0.7411,-0.6068 0.1568,-0.2926 0.1909,-0.6354 0.095,-0.9532 -0.096,-0.3177 -0.3143,-0.5843 -0.6068,-0.7411 -0.2926,-0.1568 -0.6354,-0.191 -0.9531,-0.095 -2.871,0.8621 -5.9489,0.7302 -8.7356,-0.3743 -0.3078,-0.1275 -0.6536,-0.1274 -0.9614,1e-4 -0.3077,0.1276 -0.5522,0.3722 -0.6796,0.68 -0.1274,0.3078 -0.1274,0.6536 2e-4,0.9613 0.1275,0.3078 0.3721,0.5523 0.6799,0.6797 z M 45.8531,21.5337 c 1.3823,0.5804 2.5813,1.5249 3.4692,2.733 0.1162,0.159 0.2683,0.2882 0.444,0.3772 0.1757,0.0889 0.3699,0.135 0.5668,0.1345 0.2644,9e-4 0.5222,-0.0821 0.7363,-0.2371 0.133,-0.0965 0.2457,-0.2183 0.3315,-0.3584 0.0859,-0.1401 0.1432,-0.2958 0.1687,-0.4582 0.0255,-0.1623 0.0187,-0.3281 -0.02,-0.4878 -0.0387,-0.1597 -0.1086,-0.3101 -0.2056,-0.4428 -1.156,-1.5697 -2.7178,-2.7949 -4.5176,-3.5441 -0.1522,-0.0811 -0.3196,-0.1299 -0.4916,-0.143 -0.172,-0.0132 -0.3449,0.0094 -0.5078,0.0664 -0.1628,0.057 -0.312,0.1471 -0.4383,0.2647 -0.1262,0.1176 -0.2267,0.2601 -0.2951,0.4185 -0.0683,0.1584 -0.1031,0.3293 -0.1021,0.5018 10e-4,0.1725 0.0377,0.343 0.1079,0.5006 0.0702,0.1576 0.1723,0.2989 0.2999,0.415 0.1275,0.1162 0.2778,0.2046 0.4413,0.2597 z"
         fill="#000000"
         id="path1"
         style="fill:#a90636;fill-opacity:1" /></g></g></svg>
